<?xml version="1.0" encoding="utf-8"?>
<!-- Generator: Adobe Illustrator 19.1.0, SVG Export Plug-In . SVG Version: 6.00 Build 0)  -->
<svg version="1.1" id="Layer_1" xmlns="http://www.w3.org/2000/svg" xmlns:xlink="http://www.w3.org/1999/xlink" x="0px" y="0px"
	 viewBox="-29 251 940 500" style="enable-background:new -29 251 940 500;" xml:space="preserve">
<style type="text/css">
	.st0{fill:#1B49A0;}
	.st1{fill:#357EEB;}
	.st2{opacity:0.33;}
	.st3{opacity:0.5;}
	.st4{fill:#F7BA00;}
	.st5{fill:#FFFFFF;}
</style>
<g>
	<path class="st0" d="M16.5,291.3c0,2.7-2.1,4.3-5.7,4.3c-2,0-3.6-0.5-4.7-1.1v-1.9c0.9,0.6,2.4,1.3,4.6,1.3c1.8,0,4.1-0.4,4.1-2.5
		c0-4.7-8.8-2.3-8.8-7.7c0-2.2,1.4-4.5,5.5-4.5c1.6,0,3,0.5,4,1v1.8c-0.9-0.5-2.2-1-3.8-1c-2.5,0-4,1-4,2.7
		C7.7,287.1,16.5,285.2,16.5,291.3z"/>
	<path class="st0" d="M21.7,281.3h-1.9v-1.9h1.9V281.3z M21.6,283.4h-1.7v12h1.7V283.4z"/>
	<path class="st0" d="M34.5,286.9v9c0,1.9-0.9,4.1-5.2,4.1c-1.4,0-2.5-0.2-3.4-0.4V298c0.8,0.2,1.9,0.4,3.2,0.4
		c3.2,0,3.7-1.2,3.7-2.4v-1.2c-0.9,0.3-1.8,0.4-2.8,0.4c-2.4,0-5.3-1-5.3-5.8c0-5.3,3.2-6.1,5.1-6.1C34.1,283.2,34.5,286,34.5,286.9
		z M32.7,286.8c0-1.3-1-2-3-2c-1.4,0-3.4,0.5-3.4,4.6c0,3.7,1.8,4.2,3.6,4.2c1,0,1.9-0.2,2.8-0.6C32.7,293,32.7,286.8,32.7,286.8z"
		/>
	<path class="st0" d="M47.6,287.6v7.8h-1.7v-7.8c0-1.1-0.3-2.7-3.2-2.7c-1.2,0-2.3,0.2-3.1,0.5v10h-1.7v-11c0.6-0.3,2.6-1.2,5.1-1.2
		C45.9,283.2,47.6,284.8,47.6,287.6z"/>
	<path class="st0" d="M61.2,289.6c0,0.5,0,0.8,0,0.8h-8.7c0.2,2.4,1.4,3.4,3.9,3.4c1.8,0,3.1-0.3,4.1-0.9v1.8
		c-1.2,0.6-2.6,0.8-4.3,0.8c-2.5,0-5.5-1-5.5-6c0-1.3-0.2-6.4,5.3-6.4C61.3,283.2,61.2,289.1,61.2,289.6z M59.4,288.9
		c0-0.6-0.2-4.1-3.5-4.1c-2.4,0-3.3,1.1-3.5,4.1H59.4z"/>
	<path class="st0" d="M65.8,285.5v9.9H64v-11c0.6-0.3,2.9-1.2,5.8-1.2v1.7C68.2,284.9,66.8,285.2,65.8,285.5z"/>
</g>
<g>
	<path class="st0" d="M811.9,590.1l-6.1,16h-1.7l-6.1-16h1.8l5.2,13.5l5.1-13.5H811.9z"/>
	<path class="st0" d="M823.5,600.3c0,0.5,0,0.8,0,0.8h-8.7c0.2,2.4,1.4,3.4,3.9,3.4c1.8,0,3.1-0.3,4.1-0.9v1.8
		c-1.2,0.6-2.6,0.8-4.3,0.8c-2.5,0-5.5-1-5.5-6c0-1.3-0.2-6.4,5.3-6.4C823.7,593.9,823.5,599.8,823.5,600.3z M821.7,599.6
		c0-0.6-0.2-4.1-3.5-4.1c-2.4,0-3.3,1.1-3.5,4.1H821.7z"/>
	<path class="st0" d="M828.1,596.2v9.9h-1.7v-11c0.6-0.3,2.9-1.2,5.8-1.2v1.7C830.5,595.6,829.1,595.9,828.1,596.2z"/>
	<path class="st0" d="M836.5,592h-1.9v-1.9h1.9V592z M836.5,594.1h-1.7v12h1.7V594.1z"/>
	<path class="st0" d="M843.1,593.4v0.7h3.3v1.6h-3.3v10.4h-1.7v-10.4h-2.1v-1.6h2.1v-0.6c0-4.4,2.9-4.4,3.9-4.4c0.4,0,0.8,0,1.2,0.1
		v1.5c-0.2,0-0.5-0.1-0.9-0.1C844.4,590.7,843.1,590.7,843.1,593.4z"/>
	<path class="st0" d="M850.6,592h-1.9v-1.9h1.9V592z M850.5,594.1h-1.7v12h1.7V594.1z"/>
	<path class="st0" d="M864.3,600.3c0,0.5,0,0.8,0,0.8h-8.7c0.2,2.4,1.4,3.4,3.9,3.4c1.8,0,3.1-0.3,4.1-0.9v1.8
		c-1.2,0.6-2.6,0.8-4.3,0.8c-2.5,0-5.5-1-5.5-6c0-1.3-0.2-6.4,5.3-6.4C864.5,593.9,864.3,599.8,864.3,600.3z M862.5,599.6
		c0-0.6-0.2-4.1-3.5-4.1c-2.4,0-3.3,1.1-3.5,4.1H862.5z"/>
	<path class="st0" d="M868.9,596.2v9.9h-1.7v-11c0.6-0.3,2.9-1.2,5.8-1.2v1.7C871.3,595.6,869.9,595.9,868.9,596.2z"/>
</g>
<g>
	<path class="st1" d="M303.3,329.9v9.3h-1V335h-5v4.2h-1v-9.3h1v4.2h5v-4.2C302.3,329.9,303.3,329.9,303.3,329.9z"/>
	<path class="st1" d="M310.9,335v2.1c0,1.9-2,2.2-2.9,2.2s-2.9-0.3-2.9-2.3c0-2.3,3-2.3,3.7-2.3c0.6,0,1.1,0.1,1.1,0.1
		c0-1.3-0.8-1.7-2-1.7c-1,0-1.8,0.2-2,0.3v-1c0.5-0.2,1.2-0.4,2.1-0.4C309.8,332.1,310.9,333.1,310.9,335z M309.9,335.8
		c0,0-0.5-0.1-1.2-0.1c-0.8,0-2.5,0.1-2.5,1.4c0,1.1,1.1,1.3,1.9,1.3c0.9,0,1.9-0.2,1.9-1.3C309.9,336.1,309.9,335.8,309.9,335.8z"
		/>
	<path class="st1" d="M317.2,337.4c0,1.2-1,1.9-2.6,1.9c-0.9,0-1.6-0.3-2.1-0.5v-1.1c0.6,0.4,1.3,0.6,2.1,0.6c0.7,0,1.6-0.2,1.6-1
		c0-1.9-3.8-0.8-3.8-3.2c0-1,0.7-2,2.5-2c0.7,0,1.3,0.2,1.8,0.4v1c-0.4-0.2-1-0.5-1.7-0.5s-1.6,0.2-1.6,1.1
		C313.4,335.5,317.2,334.6,317.2,337.4z"/>
	<path class="st1" d="M324.6,335.1v4.1h-1v-4.1c0-1.3-0.6-2-1.8-2c-0.8,0-1.5,0.2-2,0.4v5.7h-1v-9.7h1v3c0.5-0.2,1.3-0.4,2.1-0.4
		C323.6,332.1,324.6,333.2,324.6,335.1z"/>
	<path class="st1" d="M291,356h-1.1l-1.1-2.9h-4l-1.1,2.9h-1.1l3.7-9.3h1L291,356z M288.4,352.1l-1.6-4.3l-1.6,4.3H288.4z"/>
	<path class="st1" d="M292.6,356v-9.7h1v9.7H292.6z"/>
	<path class="st1" d="M301.2,351.1v5.3c0,1.1-0.5,2.4-3,2.4c-0.8,0-1.5-0.1-2-0.3v-1c0.4,0.1,1.1,0.3,1.9,0.3c1.9,0,2.1-0.7,2.1-1.4
		v-0.7c-0.5,0.2-1.1,0.3-1.6,0.3c-1.4,0-3.1-0.6-3.1-3.4c0-3.1,1.9-3.6,3-3.6C301,348.9,301.2,350.6,301.2,351.1z M300.2,351
		c0-0.8-0.6-1.2-1.8-1.2c-0.8,0-2,0.3-2,2.7c0,2.2,1.1,2.5,2.1,2.5c0.6,0,1.1-0.1,1.6-0.3L300.2,351L300.2,351z"/>
	<path class="st1" d="M309.2,352.5c0,3-1.8,3.6-3.3,3.6s-3.3-0.6-3.3-3.6s1.8-3.6,3.3-3.6C307.4,348.9,309.2,349.5,309.2,352.5z
		 M308.2,352.5c0-1.9-0.7-2.7-2.3-2.7c-1.6,0-2.3,0.8-2.3,2.7s0.7,2.7,2.3,2.7S308.2,354.4,308.2,352.5z"/>
	<path class="st1" d="M311.9,350.3v5.8h-1v-6.4c0.4-0.2,1.7-0.7,3.4-0.7v1C313.3,349.9,312.5,350.1,311.9,350.3z"/>
	<path class="st1" d="M316.8,347.8h-1.1v-1.1h1.1V347.8z M316.8,349h-1v7h1V349z"/>
	<path class="st1" d="M320.5,354.2c0,0.7,0.3,1,1,1c0.3,0,0.6-0.1,0.8-0.2v1c-0.3,0.1-0.6,0.2-0.9,0.2c-0.6,0-1.9-0.2-1.9-2V350
		h-1.2v-1h1.2v-2h1v2h1.8v1h-1.8V354.2z"/>
	<path class="st1" d="M329.7,351.9v4.1h-1v-4.1c0-1.3-0.6-2-1.8-2c-0.8,0-1.5,0.2-2,0.4v5.7h-1v-9.7h1v3c0.5-0.2,1.3-0.4,2.1-0.4
		C328.7,348.9,329.7,350,329.7,351.9z"/>
	<path class="st1" d="M341.9,351.5v4.6h-1v-4.6c0-0.7-0.2-1.6-1.7-1.6c-0.8,0-1.5,0.2-1.9,0.4c0.2,0.4,0.2,0.7,0.2,1.2v4.6h-1v-4.6
		c0-0.7-0.2-1.6-1.8-1.6c-0.6,0-1.2,0.1-1.7,0.3v5.9h-1v-6.4c0.4-0.2,1.5-0.7,2.8-0.7c0.8,0,1.4,0.2,1.8,0.6
		c0.5-0.2,1.4-0.6,2.6-0.6C340.9,348.9,341.9,349.9,341.9,351.5z"/>
</g>
<path class="st0" d="M12.5,365.8c4-2.8,11.6-5.4,14.5-6.9c-3.8,0-10,0-11.1-4.6c3.5-1.6,5.6-5.1,5.5-16.4c0.1-4.1,0.4-7.9,1.7-11.1
	c2.4-6,8.7-8.2,14.4-7c5.6-1.2,11.9,1,14.4,7c1.3,3.2,1.6,7,1.7,11.1c-0.1,11.3,2,14.9,5.5,16.4c-1.2,4.7-7.4,4.6-11.1,4.6
	c2.9,1.5,10.5,4.1,14.5,6.9c0.6,0.5,1.1,1.1,1.4,1.9c2.5,7.6,1.9,9.3,4.4,18c0.7,2.7,0.9,6.8-0.8,9.1c-1,1.3-2.4,2.2-4.1,2.7h12.5
	v8.3H-0.9v-8.3h12.5c-1.7-0.5-3.2-1.4-4.1-2.7c-1.7-2.3-1.5-6.5-0.8-9.1c1.8-6.3,2.5-11.8,4.5-18C11.4,366.9,11.9,366.3,12.5,365.8
	L12.5,365.8z M17.2,397.5v-26.2c0-0.4,0.2-0.5,0.6-0.6h39.1c0.4,0,0.6,0.2,0.6,0.6v26.2c0.8,0,1.7,0,2.5,0c0-9.7,0-16.5,0-26.2
	c0-1.8-1.3-3-3-3.1H17.7c-1.8,0-3,1.3-3,3.1c0,9.7,0,16.5,0,26.2C15.5,397.5,16.3,397.5,17.2,397.5L17.2,397.5z M21.6,393.4v1.3H53
	v-1.3H21.6L21.6,393.4z M46.9,360.6c-1.2-0.8-2.4-2.2-3.2-3.5c-1,0.8-2,1.4-3.1,2c-2.1,1.3-4.4,1.3-6.5,0c-1-0.5-2-1.1-2.9-1.8
	c-0.7,1.2-1.9,2.5-3,3.2C34.4,366.4,40.6,366,46.9,360.6L46.9,360.6z M36.6,337.6c-1.6,0.6-5.4,1.6-7.3,2.2c-0.8,0.2-1.3,0.3-1.9,1
	c-0.8,0.9-1.1,2.3-0.9,3.7c0.2,2.5,0.8,4.9,1.7,6.5c1.4,2.6,3.6,4.7,6.9,6.4c1.5,0.9,3,0.9,4.6,0c3.2-1.8,5.5-3.8,6.9-6.4
	c0.6-1.1,1-2.5,1.3-4c0-0.2,0.1-0.2,0.3-0.2c0.9,0,1.9-2.3,2.2-5c0.3-2.8-0.2-5-1.2-5c-0.4,0-0.8,0.4-1.2,1.1
	c-0.3,0.6-0.7,1.1-1.1,0.5c-0.6-0.8-0.8-2.2-1.2-3.2c-0.7-2-1.5-1.7-2.6-0.9C40.8,335.8,38.6,336.8,36.6,337.6z"/>
<rect x="763.7" y="642.8" transform="matrix(-0.9997 -2.260705e-02 2.260705e-02 -0.9997 1552.1809 1304.5127)" class="st1" width="39.6" height="1.4"/>
<rect x="763.8" y="650.3" transform="matrix(-1 -4.951865e-03 4.951865e-03 -1 1563.9869 1305.882)" class="st1" width="39.6" height="1.4"/>
<path class="st0" d="M841,637.4c-10.4,0-15.5,7.7-14.9,17.6c-1,0.6-1,7.1,2,11.9c0.8,3.3,2.3,5.9,4.1,7.9c5.8-1.6,13.4-2,18.3-0.6
	c1.5-1.9,2.8-4.3,3.5-7.3c2.9-4.7,2.9-11.3,2-11.9C856.5,645.1,851.4,637.4,841,637.4L841,637.4z"/>
<path class="st0" d="M734.5,686.6h45.9c0.4-1.4,0.9-3.4,1.3-4.3c2.5-0.2,4.9-0.4,7.4-0.6c-0.1,1-0.3,3.6-0.4,4.9h17
	c-0.3,0.4-0.7,0.8-1,1.2l0,0l0,0l0,0l0,0l0,0l0,0l0,0l0,0l0,0l0,0l0,0l0,0l0,0l0,0l0,0l0,0l0,0l0,0l0,0l0,0l0,0l0,0l0,0l0,0l0,0l0,0
	l0,0l0,0l0,0l0,0l0,0l0,0l0,0l0,0l0,0l0,0l0,0l0,0l0,0l0,0l0,0l0,0l0,0l0,0l0,0l0,0l-0.1,0.1l0,0l0,0l0,0l-0.3,0.4l0,0
	c-0.7,0.9-1.2,1.7-1.8,2.6l-35.6,4.4l6,8.7l25.8-3.8c-0.6,2.3-1,4.7-1.5,7.2h-36.5L734.5,686.6L734.5,686.6z"/>
<path class="st0" d="M814.7,638c0-2.1-1-3-2.6-3.3l-57.1-3.3c-2.9-0.2-5.3,1.4-5.3,4.2c0,16.7,0,26.3,0,43c0,2.9,2.5,5.1,5.4,4.9
	c18.9-1.6,37.9-3.1,56.8-4.7c1.6-0.1,2.8-2,2.8-4.1L814.7,638z M811.8,671.8c-18.9,0.8-37.8,1.5-56.6,2.3c-0.4,0-0.7-0.3-0.7-0.7
	c0-14.7,0-22.3-0.1-37.1c0-0.4,0.3-0.6,0.7-0.6l56.7,2.2c0.2,0,0.4,0.3,0.4,0.6v32.8C812.2,671.5,812.1,671.8,811.8,671.8z"/>
<path class="st0" d="M785.5,697.1c-2.8,0.4-5.6,0.7-8.4,1.1c0.4,0.5,0.8,1,1.2,1.5c2.9-0.4,5.7-0.8,8.5-1.2
	C786.3,698.1,785.9,697.6,785.5,697.1L785.5,697.1z"/>
<path class="st0" d="M800.6,694.3c0.3-0.5,0.5-1.1,0.8-1.6l-2.3,0.3c0.4,0.5,0.9,0.9,1.3,1.4L800.6,694.3L800.6,694.3z"/>
<path class="st0" d="M797.7,693.1c-1,0.1-2,0.3-3,0.4c0.4,0.5,0.8,0.9,1.3,1.4c1-0.1,2-0.3,3-0.4C798.5,694,798.1,693.6,797.7,693.1
	L797.7,693.1z"/>
<path class="st0" d="M799.6,695.2c-1,0.1-2,0.3-3,0.4c0.4,0.5,0.9,1,1.3,1.4l1.7-0.2c0.1-0.4,0.3-0.8,0.5-1.2L799.6,695.2
	L799.6,695.2z"/>
<path class="st0" d="M798.7,699.4c0.2-0.6,0.3-1.2,0.5-1.7l-6.2,0.9c-3,0.4-6,0.8-9,1.3c0.4,0.5,0.8,1,1.3,1.6
	c3.1-0.5,6.1-0.9,9.1-1.3L798.7,699.4L798.7,699.4z"/>
<path class="st0" d="M793.1,693.7c-1,0.1-2.1,0.3-3.1,0.4c0.4,0.5,0.8,0.9,1.2,1.4c1.1-0.1,2.1-0.3,3.1-0.4
	C794,694.6,793.5,694.2,793.1,693.7L793.1,693.7z"/>
<path class="st0" d="M795,695.8c-1,0.1-2.1,0.3-3.1,0.4c0.4,0.5,0.9,1,1.3,1.5c1.1-0.1,2.1-0.3,3.2-0.4
	C795.9,696.8,795.5,696.3,795,695.8L795,695.8z"/>
<path class="st0" d="M788.4,694.3c-1.1,0.1-2.1,0.3-3.2,0.4c0.4,0.5,0.8,1,1.2,1.5c1.1-0.1,2.2-0.3,3.2-0.4
	C789.3,695.2,788.9,694.8,788.4,694.3L788.4,694.3z"/>
<path class="st0" d="M790.3,696.5c-1.1,0.1-2.1,0.3-3.2,0.4c0.4,0.5,0.8,1,1.3,1.5c1.1-0.2,2.2-0.3,3.2-0.4
	C791.2,697.4,790.7,697,790.3,696.5L790.3,696.5z"/>
<path class="st0" d="M783.6,694.9c-1.1,0.1-2.2,0.3-3.3,0.4c0.4,0.5,0.8,1,1.2,1.5c1.1-0.1,2.2-0.3,3.3-0.4
	C784.4,695.9,784,695.4,783.6,694.9L783.6,694.9z"/>
<path class="st0" d="M778.7,695.5c-1.1,0.1-2.2,0.3-3.4,0.4c0.4,0.5,0.8,1,1.2,1.5c1.1-0.1,2.3-0.3,3.4-0.4
	C779.5,696.5,779.1,696,778.7,695.5L778.7,695.5z"/>
<path class="st0" d="M782.3,700.1c-1.1,0.2-2.3,0.3-3.4,0.5c0.4,0.5,0.8,1.1,1.2,1.6c1.2-0.2,2.3-0.3,3.5-0.5
	C783.1,701.1,782.7,700.6,782.3,700.1L782.3,700.1z"/>
<path class="st0" d="M773.6,696.2c-1.2,0.1-2.3,0.3-3.5,0.4c0.4,0.5,0.8,1,1.1,1.5c1.2-0.2,2.4-0.3,3.5-0.5
	C774.3,697.2,774,696.7,773.6,696.2L773.6,696.2z"/>
<path class="st0" d="M775.3,698.5c-1.2,0.2-2.3,0.3-3.5,0.5c0.4,0.5,0.8,1,1.2,1.6c1.2-0.2,2.4-0.3,3.5-0.5
	C776.1,699.5,775.7,699,775.3,698.5L775.3,698.5z"/>
<path class="st0" d="M777.1,700.8c-1.2,0.2-2.4,0.3-3.6,0.5c0.4,0.5,0.8,1.1,1.2,1.6c1.2-0.2,2.4-0.3,3.6-0.5
	C777.9,701.9,777.5,701.4,777.1,700.8L777.1,700.8z"/>
<path class="st0" d="M882.9,713.3c-27.9,8.4-55.9,7.1-83.8,0c1.8-8.6,2.1-16,8-23.4c6.7-8.3,13.5-6.7,19.6-9.8
	c6.4-4.7,24.2-5.6,27.8-0.3c6.3,3.6,13.3,1.6,20.2,10.2C880.8,697.3,881.2,704.7,882.9,713.3z"/>
<rect x="763.8" y="657.8" transform="matrix(-1 8.658001e-03 -8.658001e-03 -1 1572.9324 1310.2222)" class="st1" width="39.6" height="1.4"/>
<path class="st1" d="M785,668.9c0.3-0.8,0.8-2.4,1.3-2.7c0.8-0.5,0.3-0.9,0.7,0.3c0.3,0.9-0.1,1.7,0.3,2.5c0.1,0.2,0.4,0.2,0.6,0.2
	c1.1-0.1,0.9-0.6,1.7-1.1c1.3-0.8,0.7-0.1,2.2,0.1c0.4,0,0.7-0.2,1-0.2c1.2-0.1,2,0,3.2,0.2c2.1,0.3,4.1,0.3,6.2,0.2
	c0.8,0,1-1,0.1-1c-2.9,0.2-5.5-0.5-8.2-0.9c-1-0.1-2.2,0.9-2.9-0.5c-0.1-0.2-0.4-0.2-0.6-0.2c-1.2,0-1.1,0.8-1.9,1.3
	c-0.9,0.5-0.1,0.3-0.4-1.3c-0.1-0.4-0.1-1.1-0.5-1.4c-2-1.4-3.8,3.1-4.2,4.2C783.4,669.5,784.8,669.5,785,668.9L785,668.9z"/>
<g>
	<path class="st0" d="M444.1,371.6v9.3h-1v-4.2h-5v4.2h-1v-9.3h1v4.2h5v-4.2C443.1,371.6,444.1,371.6,444.1,371.6z"/>
	<path class="st0" d="M451.7,376.7v2.1c0,1.9-2,2.2-2.9,2.2s-2.9-0.3-2.9-2.3c0-2.3,3-2.3,3.7-2.3c0.6,0,1.1,0.1,1.1,0.1
		c0-1.3-0.8-1.7-2-1.7c-1,0-1.8,0.2-2,0.3v-1c0.5-0.2,1.2-0.4,2.1-0.4C450.6,373.8,451.7,374.8,451.7,376.7z M450.7,377.5
		c0,0-0.5-0.1-1.2-0.1c-0.8,0-2.5,0.1-2.5,1.4c0,1.1,1.1,1.3,1.9,1.3c0.9,0,1.9-0.2,1.9-1.3C450.7,377.7,450.7,377.5,450.7,377.5z"
		/>
	<path class="st0" d="M458,379.1c0,1.2-1,1.9-2.6,1.9c-0.9,0-1.6-0.3-2.1-0.5v-1.1c0.6,0.4,1.3,0.6,2.1,0.6s1.6-0.2,1.6-1
		c0-1.9-3.8-0.8-3.8-3.2c0-1,0.7-2,2.5-2c0.7,0,1.3,0.2,1.8,0.4v1c-0.4-0.2-1-0.5-1.7-0.5s-1.6,0.2-1.6,1.1
		C454.2,377.2,458,376.3,458,379.1z"/>
	<path class="st0" d="M465.4,376.8v4.1h-1v-4.1c0-1.3-0.6-2-1.8-2c-0.8,0-1.5,0.2-2,0.4v5.7h-1v-9.7h1v3c0.5-0.2,1.3-0.4,2.1-0.4
		C464.4,373.8,465.4,374.9,465.4,376.8z"/>
</g>
<g>
	<path class="st1" d="M426.4,339.6v6.7h-0.9v-5.8l-1.2,0.7v-1l1.1-0.6C425.4,339.6,426.4,339.6,426.4,339.6z"/>
	<path class="st1" d="M433.4,343c0,2.8-1.4,3.4-2.6,3.4s-2.7-0.6-2.7-3.4s1.4-3.4,2.7-3.4C431.9,339.6,433.4,340.1,433.4,343z
		 M432.5,343c0-2.3-0.9-2.6-1.7-2.6c-0.8,0-1.7,0.3-1.7,2.6s0.9,2.6,1.7,2.6C431.5,345.5,432.5,345.2,432.5,343z"/>
	<path class="st1" d="M439.9,343c0,2.8-1.4,3.4-2.6,3.4s-2.7-0.6-2.7-3.4s1.4-3.4,2.7-3.4C438.4,339.6,439.9,340.1,439.9,343z
		 M439,343c0-2.3-0.9-2.6-1.7-2.6c-0.8,0-1.7,0.3-1.7,2.6s0.9,2.6,1.7,2.6C438,345.5,439,345.2,439,343z"/>
	<path class="st1" d="M446.4,343c0,2.8-1.4,3.4-2.6,3.4s-2.7-0.6-2.7-3.4s1.4-3.4,2.7-3.4C444.9,339.6,446.4,340.1,446.4,343z
		 M445.5,343c0-2.3-0.9-2.6-1.7-2.6c-0.8,0-1.7,0.3-1.7,2.6s0.9,2.6,1.7,2.6C444.5,345.5,445.5,345.2,445.5,343z"/>
	<path class="st1" d="M449.7,339.6v6.7h-0.9v-5.8l-1.2,0.7v-1l1.1-0.6C448.7,339.6,449.7,339.6,449.7,339.6z"/>
	<path class="st1" d="M454.2,339.6v6.7h-0.9v-5.8l-1.2,0.7v-1l1.1-0.6C453.2,339.6,454.2,339.6,454.2,339.6z"/>
	<path class="st1" d="M458.6,339.6v6.7h-0.9v-5.8l-1.2,0.7v-1l1.1-0.6C457.6,339.6,458.6,339.6,458.6,339.6z"/>
	<path class="st1" d="M465.6,343c0,2.8-1.4,3.4-2.6,3.4s-2.7-0.6-2.7-3.4s1.4-3.4,2.7-3.4C464.2,339.6,465.6,340.1,465.6,343z
		 M464.7,343c0-2.3-0.9-2.6-1.7-2.6c-0.8,0-1.7,0.3-1.7,2.6s0.9,2.6,1.7,2.6C463.8,345.5,464.7,345.2,464.7,343z"/>
	<path class="st1" d="M469,339.6v6.7h-1v-5.8l-1.2,0.7v-1l1.1-0.6C467.9,339.6,469,339.6,469,339.6z"/>
	<path class="st1" d="M476,343c0,2.8-1.4,3.4-2.6,3.4s-2.7-0.6-2.7-3.4s1.4-3.4,2.7-3.4C474.6,339.6,476,340.1,476,343z M475.1,343
		c0-2.3-0.9-2.6-1.7-2.6c-0.8,0-1.7,0.3-1.7,2.6s0.9,2.6,1.7,2.6C474.2,345.5,475.1,345.2,475.1,343z"/>
</g>
<path class="st1" d="M480.1,358h-60.2c-2.5,0-4.5-2-4.5-4.5v-20.6c0-2.5,2-4.5,4.5-4.5h60.2c2.5,0,4.5,2,4.5,4.5v20.5
	C484.6,355.9,482.5,358,480.1,358z M419.8,331.4c-0.8,0-1.5,0.7-1.5,1.5v20.5c0,0.8,0.7,1.5,1.5,1.5H480c0.8,0,1.5-0.7,1.5-1.5
	v-20.5c0-0.8-0.7-1.5-1.5-1.5H419.8z"/>
<g>
	<path class="st1" d="M310.9,583v9.3h-1v-4.2h-5v4.2h-1V583h1v4.2h5V583H310.9z"/>
	<path class="st1" d="M318.5,588.1v2.1c0,1.9-2,2.2-2.9,2.2s-2.9-0.3-2.9-2.3c0-2.3,3-2.3,3.7-2.3c0.6,0,1.1,0.1,1.1,0.1
		c0-1.3-0.8-1.7-2-1.7c-1,0-1.8,0.2-2,0.3v-1c0.5-0.2,1.2-0.4,2.1-0.4C317.5,585.2,318.5,586.2,318.5,588.1z M317.5,588.9
		c0,0-0.5-0.1-1.2-0.1c-0.8,0-2.5,0.1-2.5,1.4c0,1.1,1.1,1.3,1.9,1.3c0.9,0,1.9-0.2,1.9-1.3C317.5,589.1,317.5,588.9,317.5,588.9z"
		/>
	<path class="st1" d="M324.8,590.5c0,1.2-1,1.9-2.6,1.9c-0.9,0-1.6-0.3-2.1-0.5v-1.1c0.6,0.4,1.3,0.6,2.1,0.6c0.7,0,1.6-0.2,1.6-1
		c0-1.9-3.8-0.8-3.8-3.2c0-1,0.7-2,2.5-2c0.7,0,1.3,0.2,1.8,0.4v1c-0.4-0.2-1-0.5-1.7-0.5s-1.6,0.2-1.6,1.1
		C321,588.6,324.8,587.7,324.8,590.5z"/>
	<path class="st1" d="M332.2,588.2v4.1h-1v-4.1c0-1.3-0.6-2-1.8-2c-0.8,0-1.5,0.2-2,0.4v5.7h-1v-9.7h1v3c0.5-0.2,1.3-0.4,2.1-0.4
		C331.2,585.2,332.2,586.3,332.2,588.2z"/>
	<path class="st1" d="M298.6,609.1h-1.1l-1.1-2.9h-4l-1.1,2.9h-1.1l3.7-9.3h1L298.6,609.1z M296,605.2l-1.6-4.3l-1.6,4.3H296z"/>
	<path class="st1" d="M300.2,609.1v-9.7h1v9.7H300.2z"/>
	<path class="st1" d="M308.8,604.1v5.3c0,1.1-0.5,2.4-3,2.4c-0.8,0-1.5-0.1-2-0.3v-1c0.4,0.1,1.1,0.3,1.9,0.3c1.9,0,2.1-0.7,2.1-1.4
		v-0.7c-0.5,0.2-1.1,0.3-1.6,0.3c-1.4,0-3.1-0.6-3.1-3.4c0-3.1,1.9-3.6,3-3.6C308.6,602,308.8,603.6,308.8,604.1z M307.8,604.1
		c0-0.8-0.6-1.2-1.8-1.2c-0.8,0-2,0.3-2,2.7c0,2.2,1.1,2.5,2.1,2.5c0.6,0,1.1-0.1,1.6-0.3L307.8,604.1L307.8,604.1z"/>
	<path class="st1" d="M316.8,605.6c0,3-1.8,3.6-3.3,3.6s-3.3-0.6-3.3-3.6s1.8-3.6,3.3-3.6S316.8,602.6,316.8,605.6z M315.8,605.6
		c0-1.9-0.7-2.7-2.3-2.7c-1.6,0-2.3,0.8-2.3,2.7s0.7,2.7,2.3,2.7C315.1,608.3,315.8,607.5,315.8,605.6z"/>
	<path class="st1" d="M319.5,603.3v5.8h-1v-6.4c0.4-0.2,1.7-0.7,3.4-0.7v1C320.9,603,320.1,603.2,319.5,603.3z"/>
	<path class="st1" d="M324.4,600.9h-1.1v-1.1h1.1V600.9z M324.4,602.1h-1v7h1V602.1z"/>
	<path class="st1" d="M328.1,607.3c0,0.7,0.3,1,1,1c0.3,0,0.6-0.1,0.8-0.2v1c-0.3,0.1-0.6,0.2-0.9,0.2c-0.6,0-1.9-0.2-1.9-2V603
		h-1.2v-0.9h1.2v-2h1v2h1.8v0.9h-1.8V607.3z"/>
	<path class="st1" d="M337.3,605v4.1h-1V605c0-1.3-0.6-2-1.8-2c-0.8,0-1.5,0.2-2,0.4v5.7h-1v-9.7h1v3c0.5-0.2,1.3-0.4,2.1-0.4
		C336.3,602,337.3,603.1,337.3,605z"/>
	<path class="st1" d="M349.5,604.6v4.6h-1v-4.6c0-0.7-0.2-1.6-1.7-1.6c-0.8,0-1.5,0.2-1.9,0.3c0.2,0.4,0.2,0.7,0.2,1.2v4.6h-1v-4.6
		c0-0.7-0.2-1.6-1.8-1.6c-0.6,0-1.2,0.1-1.7,0.3v5.9h-1v-6.4c0.4-0.2,1.5-0.7,2.8-0.7c0.8,0,1.4,0.2,1.8,0.6
		c0.5-0.2,1.4-0.6,2.6-0.6C348.5,602,349.5,602.9,349.5,604.6z"/>
</g>
<g>
	<path class="st1" d="M614.4,613.8c0,1.6-1.2,2.5-3.3,2.5c-1.2,0-2.1-0.3-2.8-0.7v-1.1c0.5,0.4,1.4,0.7,2.7,0.7
		c1.1,0,2.4-0.3,2.4-1.5c0-2.7-5.2-1.4-5.2-4.5c0-1.3,0.8-2.6,3.2-2.6c1,0,1.7,0.3,2.3,0.6v1c-0.5-0.3-1.3-0.6-2.2-0.6
		c-1.5,0-2.3,0.6-2.3,1.6C609.3,611.4,614.4,610.3,614.4,613.8z"/>
	<path class="st1" d="M617.4,608h-1.1v-1.1h1.1V608z M617.4,609.2h-1v7h1V609.2z"/>
	<path class="st1" d="M624.9,611.2v5.3c0,1.1-0.5,2.4-3,2.4c-0.8,0-1.5-0.1-2-0.3v-1c0.4,0.1,1.1,0.3,1.9,0.3c1.9,0,2.1-0.7,2.1-1.4
		v-0.7c-0.5,0.2-1.1,0.3-1.6,0.3c-1.4,0-3.1-0.6-3.1-3.4c0-3.1,1.9-3.6,3-3.6C624.7,609.1,624.9,610.7,624.9,611.2z M623.9,611.2
		c0-0.8-0.6-1.2-1.8-1.2c-0.8,0-2,0.3-2,2.7c0,2.2,1,2.5,2.1,2.5c0.6,0,1.1-0.1,1.6-0.3v-3.7H623.9z"/>
	<path class="st1" d="M632.6,611.7v4.6h-1v-4.6c0-0.7-0.2-1.6-1.9-1.6c-0.7,0-1.4,0.1-1.8,0.3v5.8h-1v-6.4c0.3-0.2,1.5-0.7,3-0.7
		C631.5,609.1,632.6,610,632.6,611.7z"/>
	<path class="st1" d="M640,612v2.1c0,1.9-2,2.2-2.9,2.2s-2.9-0.3-2.9-2.3c0-2.3,3-2.3,3.7-2.3c0.6,0,1.1,0.1,1.1,0.1
		c0-1.3-0.8-1.7-2-1.7c-1,0-1.8,0.2-2,0.3v-1c0.5-0.2,1.2-0.4,2.1-0.4C638.9,609.1,640,610.1,640,612z M639,612.8
		c0,0-0.5-0.1-1.2-0.1c-0.8,0-2.5,0.1-2.5,1.4c0,1.1,1.1,1.3,1.9,1.3s1.9-0.2,1.9-1.3C639,613,639,612.8,639,612.8z"/>
	<path class="st1" d="M643.3,614.4c0,0.7,0.3,1,1,1c0.3,0,0.6-0.1,0.8-0.2v1c-0.3,0.1-0.6,0.2-0.9,0.2c-0.6,0-1.9-0.2-1.9-2v-4.2
		h-1.2v-0.9h1.2v-2h1v2h1.8v0.9h-1.8L643.3,614.4L643.3,614.4z"/>
	<path class="st1" d="M652.5,609.2v4c0,1.9-1.1,3.1-2.9,3.1c-1.9,0-2.9-1.1-2.9-3.1v-4h1v4.1c0,1.4,0.6,2.1,1.9,2.1
		c1.3,0,1.9-0.6,1.9-2.1v-4.1H652.5z"/>
	<path class="st1" d="M655.5,610.4v5.8h-1v-6.4c0.4-0.2,1.7-0.7,3.4-0.7v1C656.9,610.1,656,610.3,655.5,610.4z"/>
	<path class="st1" d="M665,612.8c0,0.3,0,0.5,0,0.5h-5.1c0.1,1.4,0.8,2,2.3,2c1,0,1.8-0.2,2.4-0.5v1c-0.7,0.3-1.5,0.5-2.5,0.5
		c-1.5,0-3.2-0.6-3.2-3.5c0-0.7-0.1-3.7,3.1-3.7S665,612.6,665,612.8z M663.9,612.4c0-0.3-0.1-2.4-2-2.4c-1.4,0-1.9,0.6-2,2.4H663.9
		z"/>
	<path class="st1" d="M672.9,608h-1.1v-1.1h1.1V608z M672.8,609.2h-1v7h1V609.2z"/>
	<path class="st1" d="M679.4,614.4c0,1.2-1,1.9-2.6,1.9c-0.9,0-1.6-0.3-2.1-0.5v-1.1c0.6,0.4,1.3,0.6,2.1,0.6s1.6-0.2,1.6-1
		c0-1.9-3.8-0.8-3.8-3.2c0-1,0.7-2,2.5-2c0.7,0,1.3,0.2,1.8,0.4v1c-0.4-0.2-1-0.5-1.7-0.5s-1.6,0.2-1.6,1.1
		C675.6,612.5,679.4,611.6,679.4,614.4z"/>
	<path class="st1" d="M691.5,609.2l-2.7,7h-1l-2.7-7h1.1l2.1,5.7l2.1-5.7H691.5z"/>
	<path class="st1" d="M698.1,612v2.1c0,1.9-2,2.2-2.9,2.2s-2.9-0.3-2.9-2.3c0-2.3,3-2.3,3.7-2.3c0.6,0,1.1,0.1,1.1,0.1
		c0-1.3-0.8-1.7-2-1.7c-1,0-1.8,0.2-2,0.3v-1c0.5-0.2,1.2-0.4,2.1-0.4C697,609.1,698.1,610.1,698.1,612z M697.1,612.8
		c0,0-0.5-0.1-1.2-0.1c-0.8,0-2.5,0.1-2.5,1.4c0,1.1,1.1,1.3,1.9,1.3s1.9-0.2,1.9-1.3C697.1,613,697.1,612.8,697.1,612.8z"/>
	<path class="st1" d="M700.1,616.2v-9.7h1v9.7H700.1z"/>
	<path class="st1" d="M704.4,608h-1.1v-1.1h1.1V608z M704.4,609.2h-1v7h1V609.2z"/>
	<path class="st1" d="M709.3,609.1c0.6,0,1.2,0.1,1.7,0.3v-2.8h1v7.6c0,0.5-0.2,2.2-2.9,2.2c-1.1,0-3.1-0.5-3.1-3.7
		C706.1,609.7,707.8,609.1,709.3,609.1z M709.2,615.4c1.2,0,1.9-0.4,1.9-1.2v-3.8c-0.5-0.2-1.1-0.4-1.7-0.4c-1.5,0-2.2,0.8-2.2,2.6
		C707.1,615.1,708.3,615.4,709.2,615.4z"/>
	<path class="st1" d="M614.6,626l-2.3,7h-1l-1.6-5.2l-1.6,5.2h-1l-2.3-7h1.1l1.8,5.4l1.6-5.4h1l1.6,5.4l1.8-5.4H614.6z"/>
	<path class="st1" d="M622.1,628.9v4.1h-1v-4.1c0-1.3-0.6-2-1.8-2c-0.8,0-1.5,0.2-2,0.4v5.7h-1v-9.7h1v3c0.5-0.2,1.3-0.4,2.1-0.4
		C621.1,625.9,622.1,627,622.1,628.9z"/>
	<path class="st1" d="M629.9,629.6c0,0.3,0,0.5,0,0.5h-5.1c0.1,1.4,0.8,2,2.3,2c1,0,1.8-0.2,2.4-0.5v1c-0.7,0.3-1.5,0.5-2.5,0.5
		c-1.5,0-3.2-0.6-3.2-3.5c0-0.7-0.1-3.7,3.1-3.7S629.9,629.4,629.9,629.6z M628.9,629.2c0-0.3-0.1-2.4-2-2.4c-1.4,0-1.9,0.6-2,2.4
		H628.9z"/>
	<path class="st1" d="M637.3,628.5v4.6h-1v-4.6c0-0.7-0.2-1.6-1.9-1.6c-0.7,0-1.4,0.1-1.8,0.3v5.8h-1v-6.4c0.3-0.2,1.5-0.7,3-0.7
		C636.3,625.9,637.3,626.8,637.3,628.5z"/>
	<path class="st1" d="M650.5,628.9v4.1h-1v-4.1c0-1.3-0.6-2-1.8-2c-0.8,0-1.5,0.2-2,0.4v5.7h-1v-9.7h1v3c0.5-0.2,1.3-0.4,2.1-0.4
		C649.5,625.9,650.5,627,650.5,628.9z"/>
	<path class="st1" d="M657.8,628.8v2.1c0,1.9-2,2.2-2.9,2.2s-2.9-0.3-2.9-2.3c0-2.3,3-2.3,3.7-2.3c0.6,0,1.1,0.1,1.1,0.1
		c0-1.3-0.8-1.7-2-1.7c-1,0-1.8,0.2-2,0.3v-1c0.5-0.2,1.2-0.4,2.1-0.4C656.8,625.9,657.8,626.9,657.8,628.8z M656.8,629.6
		c0,0-0.5-0.1-1.2-0.1c-0.8,0-2.5,0.1-2.5,1.4c0,1.1,1.1,1.3,1.9,1.3c0.9,0,1.9-0.2,1.9-1.3C656.8,629.8,656.8,629.6,656.8,629.6z"
		/>
	<path class="st1" d="M664.1,631.2c0,1.2-1,1.9-2.6,1.9c-0.9,0-1.6-0.3-2.1-0.5v-1.1c0.6,0.4,1.3,0.6,2.1,0.6s1.6-0.2,1.6-1
		c0-1.9-3.8-0.8-3.8-3.2c0-1,0.7-2,2.5-2c0.7,0,1.3,0.2,1.8,0.4v1c-0.4-0.2-1-0.5-1.7-0.5s-1.6,0.2-1.6,1.1
		C660.4,629.3,664.1,628.4,664.1,631.2z"/>
	<path class="st1" d="M671.6,628.9v4.1h-1v-4.1c0-1.3-0.6-2-1.8-2c-0.8,0-1.5,0.2-2,0.4v5.7h-1v-9.7h1v3c0.5-0.2,1.3-0.4,2.1-0.4
		C670.6,625.9,671.6,627,671.6,628.9z"/>
	<path class="st1" d="M684.1,626l-2.7,7h-1l-2.7-7h1.1l2.1,5.7l2.1-5.7H684.1z"/>
	<path class="st1" d="M690.7,628.8v2.1c0,1.9-2,2.2-2.9,2.2s-2.9-0.3-2.9-2.3c0-2.3,3-2.3,3.7-2.3c0.6,0,1.1,0.1,1.1,0.1
		c0-1.3-0.8-1.7-2-1.7c-1,0-1.8,0.2-2,0.3v-1c0.5-0.2,1.2-0.4,2.1-0.4C689.6,625.9,690.7,626.9,690.7,628.8z M689.7,629.6
		c0,0-0.5-0.1-1.2-0.1c-0.8,0-2.5,0.1-2.5,1.4c0,1.1,1.1,1.3,1.9,1.3c0.9,0,1.9-0.2,1.9-1.3C689.7,629.8,689.7,629.6,689.7,629.6z"
		/>
	<path class="st1" d="M692.7,633v-9.7h1v9.7H692.7z"/>
	<path class="st1" d="M701.7,626v4c0,1.9-1.1,3.1-2.9,3.1c-1.9,0-2.9-1.1-2.9-3.1v-4h1v4.1c0,1.4,0.6,2.1,1.9,2.1
		c1.3,0,1.9-0.6,1.9-2.1V626H701.7z"/>
	<path class="st1" d="M709.7,629.6c0,0.3,0,0.5,0,0.5h-5.1c0.1,1.4,0.8,2,2.3,2c1,0,1.8-0.2,2.4-0.5v1c-0.7,0.3-1.5,0.5-2.5,0.5
		c-1.5,0-3.2-0.6-3.2-3.5c0-0.7-0.1-3.7,3.1-3.7S709.7,629.4,709.7,629.6z M708.6,629.2c0-0.3-0.1-2.4-2-2.4c-1.4,0-1.9,0.6-2,2.4
		H708.6z"/>
	<path class="st1" d="M715.8,631.2c0,1.2-1,1.9-2.6,1.9c-0.9,0-1.6-0.3-2.1-0.5v-1.1c0.6,0.4,1.3,0.6,2.1,0.6c0.7,0,1.6-0.2,1.6-1
		c0-1.9-3.8-0.8-3.8-3.2c0-1,0.7-2,2.5-2c0.7,0,1.3,0.2,1.8,0.4v1c-0.4-0.2-1-0.5-1.7-0.5s-1.6,0.2-1.6,1.1
		C712,629.3,715.8,628.4,715.8,631.2z"/>
	<path class="st1" d="M637.7,645.6v2.1c0,1.9-2,2.2-2.9,2.2s-2.9-0.3-2.9-2.3c0-2.3,3-2.3,3.7-2.3c0.6,0,1.1,0.1,1.1,0.1
		c0-1.3-0.8-1.7-2-1.7c-1,0-1.8,0.2-2,0.3v-1c0.5-0.2,1.2-0.4,2.1-0.4C636.7,642.7,637.7,643.7,637.7,645.6z M636.7,646.4
		c0,0-0.5-0.1-1.2-0.1c-0.8,0-2.5,0.1-2.5,1.4c0,1.1,1.1,1.3,1.9,1.3c0.9,0,1.9-0.2,1.9-1.3C636.7,646.6,636.7,646.4,636.7,646.4z"
		/>
	<path class="st1" d="M640.6,644v5.8h-1v-6.4c0.4-0.2,1.7-0.7,3.4-0.7v1C642,643.7,641.1,643.9,640.6,644z"/>
	<path class="st1" d="M650.1,646.4c0,0.3,0,0.5,0,0.5H645c0.1,1.4,0.8,2,2.3,2c1,0,1.8-0.2,2.4-0.5v1c-0.7,0.3-1.5,0.5-2.5,0.5
		c-1.5,0-3.2-0.6-3.2-3.5c0-0.7-0.1-3.7,3.1-3.7S650.1,646.2,650.1,646.4z M649.1,646c0-0.3-0.1-2.4-2-2.4c-1.4,0-1.9,0.6-2,2.4
		H649.1z"/>
	<path class="st1" d="M662.6,646.4c0,0.3,0,0.5,0,0.5h-5.1c0.1,1.4,0.8,2,2.3,2c1,0,1.8-0.2,2.4-0.5v1c-0.7,0.3-1.5,0.5-2.5,0.5
		c-1.5,0-3.2-0.6-3.2-3.5c0-0.7-0.1-3.7,3.1-3.7S662.6,646.2,662.6,646.4z M661.6,646c0-0.3-0.1-2.4-2-2.4c-1.4,0-1.9,0.6-2,2.4
		H661.6z"/>
	<path class="st1" d="M667,642.7c2.7,0,2.9,1.7,2.9,2.2v7.5h-1v-2.7c-0.5,0.2-1.1,0.3-1.7,0.3c-1.5,0-3.2-0.6-3.2-3.5
		C664,643.2,665.9,642.7,667,642.7z M667.2,649c0.6,0,1.2-0.1,1.7-0.4v-3.8c0-0.8-0.6-1.2-1.8-1.2c-0.9,0-2.1,0.3-2.1,2.8
		C665,648.2,665.6,649,667.2,649z"/>
	<path class="st1" d="M677.7,642.8v4c0,1.9-1.1,3.1-2.9,3.1s-2.9-1.1-2.9-3.1v-4h1v4.1c0,1.4,0.6,2.1,1.9,2.1c1.3,0,1.9-0.6,1.9-2.1
		v-4.1H677.7z"/>
	<path class="st1" d="M685.2,645.6v2.1c0,1.9-2,2.2-2.9,2.2s-2.9-0.3-2.9-2.3c0-2.3,3-2.3,3.7-2.3c0.6,0,1.1,0.1,1.1,0.1
		c0-1.3-0.8-1.7-2-1.7c-1,0-1.8,0.2-2,0.3v-1c0.5-0.2,1.2-0.4,2.1-0.4C684.1,642.7,685.2,643.7,685.2,645.6z M684.2,646.4
		c0,0-0.5-0.1-1.2-0.1c-0.8,0-2.5,0.1-2.5,1.4c0,1.1,1.1,1.3,1.9,1.3c0.9,0,1.9-0.2,1.9-1.3C684.2,646.6,684.2,646.4,684.2,646.4z"
		/>
	<path class="st1" d="M687.2,649.8v-9.7h1v9.7H687.2z"/>
	<path class="st1" d="M691.3,648.7h1.1v1.1h-1.1V648.7z"/>
</g>
<g>
	<path class="st0" d="M516.9,619.9v9.3h-1V625h-5v4.2h-1v-9.3h1v4.2h5v-4.2H516.9L516.9,619.9z"/>
	<path class="st0" d="M524.5,625v2.1c0,1.9-2,2.2-2.9,2.2s-2.9-0.3-2.9-2.3c0-2.3,3-2.3,3.7-2.3c0.6,0,1.1,0.1,1.1,0.1
		c0-1.3-0.8-1.7-2-1.7c-1,0-1.8,0.2-2,0.3v-1c0.5-0.2,1.2-0.4,2.1-0.4C523.5,622.1,524.5,623.1,524.5,625z M523.5,625.8
		c0,0-0.5-0.1-1.2-0.1c-0.8,0-2.5,0.1-2.5,1.4c0,1.1,1.1,1.3,1.9,1.3s1.9-0.2,1.9-1.3C523.5,626,523.5,625.8,523.5,625.8z"/>
	<path class="st0" d="M530.8,627.4c0,1.2-1,1.9-2.6,1.9c-0.9,0-1.6-0.3-2.1-0.5v-1.1c0.6,0.4,1.3,0.6,2.1,0.6c0.7,0,1.6-0.2,1.6-1
		c0-1.9-3.8-0.8-3.8-3.2c0-1,0.7-2,2.5-2c0.7,0,1.3,0.2,1.8,0.4v1c-0.4-0.2-1-0.5-1.7-0.5s-1.6,0.2-1.6,1.1
		C527,625.5,530.8,624.6,530.8,627.4z"/>
	<path class="st0" d="M538.2,625.1v4.1h-1v-4.1c0-1.3-0.6-2-1.8-2c-0.8,0-1.5,0.2-2,0.4v5.7h-1v-9.7h1v3c0.5-0.2,1.3-0.4,2.1-0.4
		C537.2,622.1,538.2,623.2,538.2,625.1z"/>
</g>
<g>
	<path class="st0" d="M516.9,684.1v9.3h-1v-4.2h-5v4.2h-1v-9.3h1v4.2h5v-4.2H516.9z"/>
	<path class="st0" d="M524.5,689.2v2.1c0,1.9-2,2.2-2.9,2.2s-2.9-0.3-2.9-2.3c0-2.3,3-2.3,3.7-2.3c0.6,0,1.1,0.1,1.1,0.1
		c0-1.3-0.8-1.7-2-1.7c-1,0-1.8,0.2-2,0.3v-1c0.5-0.2,1.2-0.4,2.1-0.4C523.5,686.3,524.5,687.3,524.5,689.2z M523.5,690
		c0,0-0.5-0.1-1.2-0.1c-0.8,0-2.5,0.1-2.5,1.4c0,1.1,1.1,1.3,1.9,1.3s1.9-0.2,1.9-1.3C523.5,690.2,523.5,690,523.5,690z"/>
	<path class="st0" d="M530.8,691.6c0,1.2-1,1.9-2.6,1.9c-0.9,0-1.6-0.3-2.1-0.5v-1.1c0.6,0.4,1.3,0.6,2.1,0.6c0.7,0,1.6-0.2,1.6-1
		c0-1.9-3.8-0.8-3.8-3.2c0-1,0.7-2,2.5-2c0.7,0,1.3,0.2,1.8,0.4v1c-0.4-0.2-1-0.5-1.7-0.5s-1.6,0.2-1.6,1.1
		C527,689.7,530.8,688.8,530.8,691.6z"/>
	<path class="st0" d="M538.2,689.3v4.1h-1v-4.1c0-1.3-0.6-2-1.8-2c-0.8,0-1.5,0.2-2,0.4v5.7h-1v-9.7h1v3c0.5-0.2,1.3-0.4,2.1-0.4
		C537.2,686.3,538.2,687.4,538.2,689.3z"/>
</g>
<g>
	<path class="st1" d="M500.4,592.8v6.7h-0.9v-5.8l-1.2,0.7v-1l1.1-0.6L500.4,592.8L500.4,592.8z"/>
	<path class="st1" d="M507.4,596.1c0,2.8-1.4,3.4-2.6,3.4c-1.2,0-2.7-0.6-2.7-3.4c0-2.8,1.4-3.4,2.7-3.4
		C506,592.7,507.4,593.3,507.4,596.1z M506.5,596.1c0-2.3-0.9-2.6-1.7-2.6s-1.7,0.3-1.7,2.6c0,2.3,0.9,2.6,1.7,2.6
		C505.5,598.7,506.5,598.4,506.5,596.1z"/>
	<path class="st1" d="M513.9,596.1c0,2.8-1.4,3.4-2.6,3.4c-1.2,0-2.7-0.6-2.7-3.4c0-2.8,1.4-3.4,2.7-3.4
		C512.5,592.7,513.9,593.3,513.9,596.1z M513,596.1c0-2.3-0.9-2.6-1.7-2.6s-1.7,0.3-1.7,2.6c0,2.3,0.9,2.6,1.7,2.6
		C512,598.7,513,598.4,513,596.1z"/>
	<path class="st1" d="M520.4,596.1c0,2.8-1.4,3.4-2.6,3.4c-1.2,0-2.7-0.6-2.7-3.4c0-2.8,1.4-3.4,2.7-3.4
		C519,592.7,520.4,593.3,520.4,596.1z M519.5,596.1c0-2.3-0.9-2.6-1.7-2.6s-1.7,0.3-1.7,2.6c0,2.3,0.9,2.6,1.7,2.6
		C518.5,598.7,519.5,598.4,519.5,596.1z"/>
	<path class="st1" d="M523.7,592.8v6.7h-0.9v-5.8l-1.2,0.7v-1l1.1-0.6L523.7,592.8L523.7,592.8z"/>
	<path class="st1" d="M528.2,592.8v6.7h-0.9v-5.8l-1.2,0.7v-1l1.1-0.6L528.2,592.8L528.2,592.8z"/>
	<path class="st1" d="M532.6,592.8v6.7h-0.9v-5.8l-1.2,0.7v-1l1.1-0.6L532.6,592.8L532.6,592.8z"/>
	<path class="st1" d="M539.6,596.1c0,2.8-1.4,3.4-2.6,3.4c-1.2,0-2.7-0.6-2.7-3.4c0-2.8,1.4-3.4,2.7-3.4
		C538.2,592.7,539.6,593.3,539.6,596.1z M538.7,596.1c0-2.3-0.9-2.6-1.7-2.6s-1.7,0.3-1.7,2.6c0,2.3,0.9,2.6,1.7,2.6
		S538.7,598.4,538.7,596.1z"/>
	<path class="st1" d="M543,592.8v6.7h-0.9v-5.8l-1.2,0.7v-1l1.1-0.6L543,592.8L543,592.8z"/>
	<path class="st1" d="M550,596.1c0,2.8-1.4,3.4-2.6,3.4c-1.2,0-2.7-0.6-2.7-3.4c0-2.8,1.4-3.4,2.7-3.4
		C548.6,592.7,550,593.3,550,596.1z M549.1,596.1c0-2.3-0.9-2.6-1.7-2.6s-1.7,0.3-1.7,2.6c0,2.3,0.9,2.6,1.7,2.6
		C548.2,598.7,549.1,598.4,549.1,596.1z"/>
</g>
<path class="st1" d="M554.1,611.1h-60.2c-2.5,0-4.5-2-4.5-4.5v-20.5c0-2.5,2-4.5,4.5-4.5h60.2c2.5,0,4.5,2,4.5,4.5v20.5
	C558.6,609.1,556.6,611.1,554.1,611.1z M493.8,584.6c-0.8,0-1.5,0.7-1.5,1.5v20.5c0,0.8,0.7,1.5,1.5,1.5H554c0.8,0,1.5-0.7,1.5-1.5
	v-20.5c0-0.8-0.7-1.5-1.5-1.5H493.8z"/>
<path class="st1" d="M554.1,675.7h-60.2c-2.5,0-4.5-2-4.5-4.5v-20.5c0-2.5,2-4.5,4.5-4.5h60.2c2.5,0,4.5,2,4.5,4.5v20.5
	C558.6,673.7,556.6,675.7,554.1,675.7z M493.8,649.2c-0.8,0-1.5,0.7-1.5,1.5v20.5c0,0.8,0.7,1.5,1.5,1.5H554c0.8,0,1.5-0.7,1.5-1.5
	v-20.5c0-0.8-0.7-1.5-1.5-1.5H493.8z"/>
<g>
	<path class="st1" d="M500.4,657.4v6.7h-0.9v-5.8l-1.2,0.7v-1l1.1-0.6H500.4L500.4,657.4z"/>
	<path class="st1" d="M507.4,660.7c0,2.8-1.4,3.4-2.6,3.4c-1.2,0-2.7-0.6-2.7-3.4s1.4-3.4,2.7-3.4
		C506,657.3,507.4,657.9,507.4,660.7z M506.5,660.7c0-2.3-0.9-2.6-1.7-2.6s-1.7,0.3-1.7,2.6s0.9,2.6,1.7,2.6
		C505.5,663.3,506.5,663,506.5,660.7z"/>
	<path class="st1" d="M513.9,660.7c0,2.8-1.4,3.4-2.6,3.4c-1.2,0-2.7-0.6-2.7-3.4s1.4-3.4,2.7-3.4
		C512.5,657.3,513.9,657.9,513.9,660.7z M513,660.7c0-2.3-0.9-2.6-1.7-2.6s-1.7,0.3-1.7,2.6s0.9,2.6,1.7,2.6
		C512,663.3,513,663,513,660.7z"/>
	<path class="st1" d="M520.4,660.7c0,2.8-1.4,3.4-2.6,3.4c-1.2,0-2.7-0.6-2.7-3.4s1.4-3.4,2.7-3.4
		C519,657.3,520.4,657.9,520.4,660.7z M519.5,660.7c0-2.3-0.9-2.6-1.7-2.6s-1.7,0.3-1.7,2.6s0.9,2.6,1.7,2.6
		C518.5,663.3,519.5,663,519.5,660.7z"/>
	<path class="st1" d="M523.7,657.4v6.7h-0.9v-5.8l-1.2,0.7v-1l1.1-0.6H523.7L523.7,657.4z"/>
	<path class="st1" d="M528.2,657.4v6.7h-0.9v-5.8l-1.2,0.7v-1l1.1-0.6H528.2L528.2,657.4z"/>
	<path class="st1" d="M532.6,657.4v6.7h-0.9v-5.8l-1.2,0.7v-1l1.1-0.6H532.6L532.6,657.4z"/>
	<path class="st1" d="M539.6,660.7c0,2.8-1.4,3.4-2.6,3.4c-1.2,0-2.7-0.6-2.7-3.4s1.4-3.4,2.7-3.4
		C538.2,657.3,539.6,657.9,539.6,660.7z M538.7,660.7c0-2.3-0.9-2.6-1.7-2.6s-1.7,0.3-1.7,2.6s0.9,2.6,1.7,2.6
		C537.8,663.3,538.7,663,538.7,660.7z"/>
	<path class="st1" d="M543,657.4v6.7h-0.9v-5.8l-1.2,0.7v-1l1.1-0.6H543L543,657.4z"/>
	<path class="st1" d="M550,660.7c0,2.8-1.4,3.4-2.6,3.4c-1.2,0-2.7-0.6-2.7-3.4s1.4-3.4,2.7-3.4C548.6,657.3,550,657.9,550,660.7z
		 M549.1,660.7c0-2.3-0.9-2.6-1.7-2.6s-1.7,0.3-1.7,2.6s0.9,2.6,1.7,2.6C548.2,663.3,549.1,663,549.1,660.7z"/>
</g>
<g class="st2">
	<path class="st1" d="M716.8,288.6H222.6c-0.8,0-1.5-0.7-1.5-1.5c0-0.8,0.7-1.5,1.5-1.5h494.2c0.8,0,1.5,0.7,1.5,1.5
		C718.3,287.9,717.7,288.6,716.8,288.6z"/>
	<g>
		<polygon class="st1" points="715.4,292 723.9,287.1 715.4,282.2 		"/>
	</g>
</g>
<g class="st3">
	<g>
		<path class="st1" d="M425.8,477.4v10.7h-2.1l-5.5-8v8h-1.9v-10.7h2.2l5.5,7.9v-7.9H425.8z"/>
		<path class="st1" d="M434.7,486v1.6c-0.7,0.4-1.7,0.7-3,0.7c-1.6,0-3.7-0.6-3.7-4c0-2.4,1-4.2,3.6-4.2c2.5,0,3.6,1.9,3.6,3.9
			c0,0.4,0,0.7,0,1H430c0.1,1.5,1.1,1.7,2,1.7C433.2,486.6,434.1,486.3,434.7,486z M430,483.5h3.2c-0.1-1-0.6-2-1.6-2
			S430.1,482.1,430,483.5z"/>
		<path class="st1" d="M439.3,481.8v3.9c0,0.7,0.3,0.9,1,0.9c0.4,0,0.7-0.1,0.9-0.2v1.6c-0.4,0.2-0.8,0.2-1.3,0.2
			c-1.6,0-2.5-1-2.5-2.6v-3.8h-1.3v-1.6h1.3v-2.4h1.9v2.4h1.9v1.6H439.3L439.3,481.8z"/>
		<path class="st1" d="M454.6,480.1l-2.8,8h-1.9l-1.3-4.6l-1.3,4.6h-1.9l-2.8-8h2l1.7,5.8l1.5-5.8h1.6l1.5,5.8l1.7-5.8H454.6z"/>
		<path class="st1" d="M463.3,484.1c0,2.7-1.3,4.1-3.8,4.1s-3.8-1.5-3.8-4.1s1.3-4.1,3.8-4.1S463.3,481.5,463.3,484.1z M461.4,484.1
			c0-2.1-0.7-2.5-1.9-2.5s-1.9,0.4-1.9,2.5s0.7,2.5,1.9,2.5S461.4,486.2,461.4,484.1z"/>
		<path class="st1" d="M469.2,480v1.7c-1.1,0-1.8,0.2-2.1,0.3v6.2h-1.9v-7.3C465.2,480.8,466.9,480,469.2,480z"/>
		<path class="st1" d="M476.2,488.1l-2.6-3.2l-0.5,0.5v2.6h-1.9v-11h1.9v5.9l2.7-2.9h2.5l-3.5,3.6l3.8,4.4h-2.4V488.1z"/>
	</g>
	<g>
		<path class="st1" d="M485.4,466.3c-1.5-3.3-3.7-6.3-6.6-8.6c-4.1-3.4-9.4-5.2-14.7-5.2c-0.6,0-1.3,0-1.9,0.1
			c-3.1-3.9-7.8-6.3-12.9-6.3c-3.6,0-7,1.2-9.8,3.3c-1.7-0.4-3.5-0.6-5.4-0.6c-10,0-18.8,6.2-22.3,15.2
			c-10.4,3.2-17.9,12.9-17.9,24.2c0,13.9,11.3,25.3,25.3,25.3c0.6,0,1.1,0,1.7-0.1c5.5,4.1,12.1,6.3,19,6.3c5.2,0,10.2-1.2,14.7-3.6
			c3,1.3,6.2,2,9.6,2c10.1,0,18.9-6.5,22.2-15.7c7.9-2.2,13.8-9.4,13.8-18C500.1,475.7,493.8,468.2,485.4,466.3z M481.4,497h-0.1
			c-1.1,8.5-8.3,15.1-17.1,15.1c-3.6,0-6.9-1.1-9.7-3c-4.1,2.9-9.1,4.6-14.5,4.6c-6.6,0-12.6-2.5-17.1-6.6c-1.2,0.2-2.3,0.3-3.6,0.3
			c-10.5,0-19-8.5-19-19c0-9.7,7.2-17.6,16.6-18.8c1.6-8.1,8.8-14.3,17.4-14.3c2.5,0,4.9,0.5,7,1.4c1.9-2.5,4.8-4.1,8.2-4.1
			c4.5,0,8.3,2.9,9.7,7c1.6-0.5,3.3-0.8,5.1-0.8c8.2,0,15,5.7,16.7,13.4c0.2,0,0.4,0,0.6,0c6.9,0,12.4,5.6,12.4,12.4
			C493.8,491.4,488.3,497,481.4,497z"/>
	</g>
</g>
<g class="st3">
	<path class="st1" d="M820.2,315.7c-0.5,0-1.1-0.2-1.4-0.6c-0.4-0.4-0.6-0.9-0.6-1.4s0.2-1,0.6-1.4c0.8-0.7,2.1-0.7,2.8,0
		c0.4,0.4,0.6,0.9,0.6,1.4s-0.2,1-0.6,1.4C821.3,315.5,820.8,315.7,820.2,315.7z"/>
	<path class="st1" d="M870.5,313.7c0-1.1,0.9-2,2-2l0,0c1.1,0,2,0.9,2,2l0,0c0,1.1-0.9,2-2,2l0,0
		C871.4,315.7,870.5,314.8,870.5,313.7z M860,313.7c0-1.1,0.9-2,2-2l0,0c1.1,0,2,0.9,2,2l0,0c0,1.1-0.9,2-2,2l0,0
		C860.9,315.7,860,314.8,860,313.7z M849.6,313.7c0-1.1,0.9-2,2-2l0,0c1.1,0,2,0.9,2,2l0,0c0,1.1-0.9,2-2,2l0,0
		C850.5,315.7,849.6,314.8,849.6,313.7z M839.1,313.7c0-1.1,0.9-2,2-2l0,0c1.1,0,2,0.9,2,2l0,0c0,1.1-0.9,2-2,2l0,0
		C840,315.7,839.1,314.8,839.1,313.7z M828.7,313.7c0-1.1,0.9-2,2-2l0,0c1.1,0,2,0.9,2,2l0,0c0,1.1-0.9,2-2,2l0,0
		C829.6,315.7,828.7,314.8,828.7,313.7z"/>
	<path class="st1" d="M882.9,315.7c-0.5,0-1-0.2-1.4-0.6s-0.6-0.9-0.6-1.4s0.2-1,0.6-1.4c0.7-0.7,2.1-0.7,2.8,0
		c0.4,0.4,0.6,0.9,0.6,1.4s-0.2,1-0.6,1.4S883.5,315.7,882.9,315.7z"/>
	<path class="st1" d="M880.9,473.1c0-1.1,0.9-2,2-2l0,0c1.1,0,2,0.9,2,2l0,0c0,1.1-0.9,2-2,2l0,0
		C881.8,475.1,880.9,474.2,880.9,473.1z M880.9,463.2c0-1.1,0.9-2,2-2l0,0c1.1,0,2,0.9,2,2l0,0c0,1.1-0.9,2-2,2l0,0
		C881.8,465.2,880.9,464.3,880.9,463.2z M880.9,453.2c0-1.1,0.9-2,2-2l0,0c1.1,0,2,0.9,2,2l0,0c0,1.1-0.9,2-2,2l0,0
		C881.8,455.2,880.9,454.3,880.9,453.2z M880.9,443.2c0-1.1,0.9-2,2-2l0,0c1.1,0,2,0.9,2,2l0,0c0,1.1-0.9,2-2,2l0,0
		C881.8,445.2,880.9,444.3,880.9,443.2z M880.9,433.3c0-1.1,0.9-2,2-2l0,0c1.1,0,2,0.9,2,2l0,0c0,1.1-0.9,2-2,2l0,0
		C881.8,435.3,880.9,434.4,880.9,433.3z M880.9,423.3c0-1.1,0.9-2,2-2l0,0c1.1,0,2,0.9,2,2l0,0c0,1.1-0.9,2-2,2l0,0
		C881.8,425.3,880.9,424.4,880.9,423.3z M880.9,413.3c0-1.1,0.9-2,2-2l0,0c1.1,0,2,0.9,2,2l0,0c0,1.1-0.9,2-2,2l0,0
		C881.8,415.3,880.9,414.4,880.9,413.3z M880.9,403.4c0-1.1,0.9-2,2-2l0,0c1.1,0,2,0.9,2,2l0,0c0,1.1-0.9,2-2,2l0,0
		C881.8,405.4,880.9,404.5,880.9,403.4z M880.9,393.4c0-1.1,0.9-2,2-2l0,0c1.1,0,2,0.9,2,2l0,0c0,1.1-0.9,2-2,2l0,0
		C881.8,395.4,880.9,394.5,880.9,393.4z M880.9,383.4c0-1.1,0.9-2,2-2l0,0c1.1,0,2,0.9,2,2l0,0c0,1.1-0.9,2-2,2l0,0
		C881.8,385.4,880.9,384.5,880.9,383.4z M880.9,373.5c0-1.1,0.9-2,2-2l0,0c1.1,0,2,0.9,2,2l0,0c0,1.1-0.9,2-2,2l0,0
		C881.8,375.5,880.9,374.6,880.9,373.5z M880.9,363.5c0-1.1,0.9-2,2-2l0,0c1.1,0,2,0.9,2,2l0,0c0,1.1-0.9,2-2,2l0,0
		C881.8,365.5,880.9,364.6,880.9,363.5z M880.9,353.5c0-1.1,0.9-2,2-2l0,0c1.1,0,2,0.9,2,2l0,0c0,1.1-0.9,2-2,2l0,0
		C881.8,355.5,880.9,354.6,880.9,353.5z M880.9,343.6c0-1.1,0.9-2,2-2l0,0c1.1,0,2,0.9,2,2l0,0c0,1.1-0.9,2-2,2l0,0
		C881.8,345.6,880.9,344.7,880.9,343.6z M880.9,333.6c0-1.1,0.9-2,2-2l0,0c1.1,0,2,0.9,2,2l0,0c0,1.1-0.9,2-2,2l0,0
		C881.8,335.6,880.9,334.7,880.9,333.6z M880.9,323.6c0-1.1,0.9-2,2-2l0,0c1.1,0,2,0.9,2,2l0,0c0,1.1-0.9,2-2,2l0,0
		C881.8,325.6,880.9,324.8,880.9,323.6z"/>
	<path class="st1" d="M882.9,485.1c-0.5,0-1-0.2-1.4-0.6c-0.4-0.4-0.6-0.9-0.6-1.4s0.2-1,0.6-1.4c0.7-0.7,2.1-0.7,2.8,0
		c0.4,0.4,0.6,0.9,0.6,1.4s-0.2,1-0.6,1.4C884,484.9,883.5,485.1,882.9,485.1z"/>
	<path class="st1" d="M871,483.1c0-1.1,0.9-2,2-2l0,0c1.1,0,2,0.9,2,2l0,0c0,1.1-0.9,2-2,2l0,0C871.9,485.1,871,484.2,871,483.1z
		 M861,483.1c0-1.1,0.9-2,2-2l0,0c1.1,0,2,0.9,2,2l0,0c0,1.1-0.9,2-2,2l0,0C861.9,485.1,861,484.2,861,483.1z M851,483.1
		c0-1.1,0.9-2,2-2l0,0c1.1,0,2,0.9,2,2l0,0c0,1.1-0.9,2-2,2l0,0C851.9,485.1,851,484.2,851,483.1z M841.1,483.1c0-1.1,0.9-2,2-2l0,0
		c1.1,0,2,0.9,2,2l0,0c0,1.1-0.9,2-2,2l0,0C842,485.1,841.1,484.2,841.1,483.1z M831.1,483.1c0-1.1,0.9-2,2-2l0,0c1.1,0,2,0.9,2,2
		l0,0c0,1.1-0.9,2-2,2l0,0C832,485.1,831.1,484.2,831.1,483.1z M821.1,483.1c0-1.1,0.9-2,2-2l0,0c1.1,0,2,0.9,2,2l0,0
		c0,1.1-0.9,2-2,2l0,0C822,485.1,821.1,484.2,821.1,483.1z M811.2,483.1c0-1.1,0.9-2,2-2l0,0c1.1,0,2,0.9,2,2l0,0c0,1.1-0.9,2-2,2
		l0,0C812.1,485.1,811.2,484.2,811.2,483.1z M801.2,483.1c0-1.1,0.9-2,2-2l0,0c1.1,0,2,0.9,2,2l0,0c0,1.1-0.9,2-2,2l0,0
		C802.1,485.1,801.2,484.2,801.2,483.1z M791.2,483.1c0-1.1,0.9-2,2-2l0,0c1.1,0,2,0.9,2,2l0,0c0,1.1-0.9,2-2,2l0,0
		C792.1,485.1,791.2,484.2,791.2,483.1z M781.3,483.1c0-1.1,0.9-2,2-2l0,0c1.1,0,2,0.9,2,2l0,0c0,1.1-0.9,2-2,2l0,0
		C782.2,485.1,781.3,484.2,781.3,483.1z M771.3,483.1c0-1.1,0.9-2,2-2l0,0c1.1,0,2,0.9,2,2l0,0c0,1.1-0.9,2-2,2l0,0
		C772.2,485.1,771.3,484.2,771.3,483.1z M761.4,483.1c0-1.1,0.9-2,2-2l0,0c1.1,0,2,0.9,2,2l0,0c0,1.1-0.9,2-2,2l0,0
		C762.3,485.1,761.4,484.2,761.4,483.1z M751.4,483.1c0-1.1,0.9-2,2-2l0,0c1.1,0,2,0.9,2,2l0,0c0,1.1-0.9,2-2,2l0,0
		C752.3,485.1,751.4,484.2,751.4,483.1z M741.4,483.1c0-1.1,0.9-2,2-2l0,0c1.1,0,2,0.9,2,2l0,0c0,1.1-0.9,2-2,2l0,0
		C742.3,485.1,741.4,484.2,741.4,483.1z M731.5,483.1c0-1.1,0.9-2,2-2l0,0c1.1,0,2,0.9,2,2l0,0c0,1.1-0.9,2-2,2l0,0
		C732.4,485.1,731.5,484.2,731.5,483.1z M721.5,483.1c0-1.1,0.9-2,2-2l0,0c1.1,0,2,0.9,2,2l0,0c0,1.1-0.9,2-2,2l0,0
		C722.4,485.1,721.5,484.2,721.5,483.1z M711.5,483.1c0-1.1,0.9-2,2-2l0,0c1.1,0,2,0.9,2,2l0,0c0,1.1-0.9,2-2,2l0,0
		C712.4,485.1,711.5,484.2,711.5,483.1z M701.6,483.1c0-1.1,0.9-2,2-2l0,0c1.1,0,2,0.9,2,2l0,0c0,1.1-0.9,2-2,2l0,0
		C702.5,485.1,701.6,484.2,701.6,483.1z M691.6,483.1c0-1.1,0.9-2,2-2l0,0c1.1,0,2,0.9,2,2l0,0c0,1.1-0.9,2-2,2l0,0
		C692.5,485.1,691.6,484.2,691.6,483.1z M681.6,483.1c0-1.1,0.9-2,2-2l0,0c1.1,0,2,0.9,2,2l0,0c0,1.1-0.9,2-2,2l0,0
		C682.5,485.1,681.6,484.2,681.6,483.1z M671.7,483.1c0-1.1,0.9-2,2-2l0,0c1.1,0,2,0.9,2,2l0,0c0,1.1-0.9,2-2,2l0,0
		C672.6,485.1,671.7,484.2,671.7,483.1z M661.7,483.1c0-1.1,0.9-2,2-2l0,0c1.1,0,2,0.9,2,2l0,0c0,1.1-0.9,2-2,2l0,0
		C662.6,485.1,661.7,484.2,661.7,483.1z M651.8,483.1c0-1.1,0.9-2,2-2l0,0c1.1,0,2,0.9,2,2l0,0c0,1.1-0.9,2-2,2l0,0
		C652.6,485.1,651.8,484.2,651.8,483.1z M641.8,483.1c0-1.1,0.9-2,2-2l0,0c1.1,0,2,0.9,2,2l0,0c0,1.1-0.9,2-2,2l0,0
		C642.7,485.1,641.8,484.2,641.8,483.1z M631.8,483.1c0-1.1,0.9-2,2-2l0,0c1.1,0,2,0.9,2,2l0,0c0,1.1-0.9,2-2,2l0,0
		C632.7,485.1,631.8,484.2,631.8,483.1z M621.9,483.1c0-1.1,0.9-2,2-2l0,0c1.1,0,2,0.9,2,2l0,0c0,1.1-0.9,2-2,2l0,0
		C622.8,485.1,621.9,484.2,621.9,483.1z M611.9,483.1c0-1.1,0.9-2,2-2l0,0c1.1,0,2,0.9,2,2l0,0c0,1.1-0.9,2-2,2l0,0
		C612.8,485.1,611.9,484.2,611.9,483.1z M601.9,483.1c0-1.1,0.9-2,2-2l0,0c1.1,0,2,0.9,2,2l0,0c0,1.1-0.9,2-2,2l0,0
		C602.8,485.1,601.9,484.2,601.9,483.1z M592,483.1c0-1.1,0.9-2,2-2l0,0c1.1,0,2,0.9,2,2l0,0c0,1.1-0.9,2-2,2l0,0
		C592.9,485.1,592,484.2,592,483.1z M582,483.1c0-1.1,0.9-2,2-2l0,0c1.1,0,2,0.9,2,2l0,0c0,1.1-0.9,2-2,2l0,0
		C582.9,485.1,582,484.2,582,483.1z M572,483.1c0-1.1,0.9-2,2-2l0,0c1.1,0,2,0.9,2,2l0,0c0,1.1-0.9,2-2,2l0,0
		C572.9,485.1,572,484.2,572,483.1z M562.1,483.1c0-1.1,0.9-2,2-2l0,0c1.1,0,2,0.9,2,2l0,0c0,1.1-0.9,2-2,2l0,0
		C563,485.1,562.1,484.2,562.1,483.1z M552.1,483.1c0-1.1,0.9-2,2-2l0,0c1.1,0,2,0.9,2,2l0,0c0,1.1-0.9,2-2,2l0,0
		C553,485.1,552.1,484.2,552.1,483.1z M542.1,483.1c0-1.1,0.9-2,2-2l0,0c1.1,0,2,0.9,2,2l0,0c0,1.1-0.9,2-2,2l0,0
		C543,485.1,542.1,484.2,542.1,483.1z M532.2,483.1c0-1.1,0.9-2,2-2l0,0c1.1,0,2,0.9,2,2l0,0c0,1.1-0.9,2-2,2l0,0
		C533.1,485.1,532.2,484.2,532.2,483.1z"/>
	<path class="st1" d="M524.2,485.1c-0.5,0-1-0.2-1.4-0.6c-0.4-0.4-0.6-0.9-0.6-1.4s0.2-1,0.6-1.4c0.7-0.7,2.1-0.7,2.8,0
		c0.4,0.4,0.6,0.9,0.6,1.4s-0.2,1-0.6,1.4S524.7,485.1,524.2,485.1z"/>
</g>
<g class="st3">
	<path class="st1" d="M63.6,654.5c-0.5,0-1-0.2-1.4-0.6c-0.4-0.4-0.6-0.9-0.6-1.4s0.2-1,0.6-1.4c0.7-0.8,2.1-0.8,2.8,0
		c0.4,0.4,0.6,0.9,0.6,1.4s-0.2,1-0.6,1.4C64.6,654.3,64.1,654.5,63.6,654.5z"/>
	<path class="st1" d="M50.8,652.5c0-1.1,0.9-2,2-2l0,0c1.1,0,2,0.9,2,2l0,0c0,1.1-0.9,2-2,2l0,0C51.7,654.5,50.8,653.6,50.8,652.5z
		 M40.1,652.5c0-1.1,0.9-2,2-2l0,0c1.1,0,2,0.9,2,2l0,0c0,1.1-0.9,2-2,2l0,0C41,654.5,40.1,653.6,40.1,652.5z M29.3,652.5
		c0-1.1,0.9-2,2-2l0,0c1.1,0,2,0.9,2,2l0,0c0,1.1-0.9,2-2,2l0,0C30.2,654.5,29.3,653.6,29.3,652.5z M18.6,652.5c0-1.1,0.9-2,2-2l0,0
		c1.1,0,2,0.9,2,2l0,0c0,1.1-0.9,2-2,2l0,0C19.5,654.5,18.6,653.6,18.6,652.5z M7.8,652.5c0-1.1,0.9-2,2-2l0,0c1.1,0,2,0.9,2,2l0,0
		c0,1.1-0.9,2-2,2l0,0C8.7,654.5,7.8,653.6,7.8,652.5z"/>
	<path class="st1" d="M-0.9,654.5c-0.5,0-1-0.2-1.4-0.6c-0.4-0.4-0.6-0.9-0.6-1.4s0.2-1,0.6-1.4c0.7-0.7,2.1-0.7,2.8,0
		c0.4,0.4,0.6,0.9,0.6,1.4s-0.2,1-0.6,1.4C0.1,654.3-0.4,654.5-0.9,654.5z"/>
	<path class="st1" d="M-2.9,642.6c0-1.1,0.9-2,2-2l0,0c1.1,0,2,0.9,2,2l0,0c0,1.1-0.9,2-2,2l0,0C-2,644.6-2.9,643.7-2.9,642.6z
		 M-2.9,632.6c0-1.1,0.9-2,2-2l0,0c1.1,0,2,0.9,2,2l0,0c0,1.1-0.9,2-2,2l0,0C-2,634.6-2.9,633.7-2.9,632.6z M-2.9,622.6
		c0-1.1,0.9-2,2-2l0,0c1.1,0,2,0.9,2,2l0,0c0,1.1-0.9,2-2,2l0,0C-2,624.6-2.9,623.7-2.9,622.6z M-2.9,612.7c0-1.1,0.9-2,2-2l0,0
		c1.1,0,2,0.9,2,2l0,0c0,1.1-0.9,2-2,2l0,0C-2,614.7-2.9,613.8-2.9,612.7z M-2.9,602.7c0-1.1,0.9-2,2-2l0,0c1.1,0,2,0.9,2,2l0,0
		c0,1.1-0.9,2-2,2l0,0C-2,604.7-2.9,603.8-2.9,602.7z M-2.9,592.7c0-1.1,0.9-2,2-2l0,0c1.1,0,2,0.9,2,2l0,0c0,1.1-0.9,2-2,2l0,0
		C-2,594.7-2.9,593.8-2.9,592.7z M-2.9,582.8c0-1.1,0.9-2,2-2l0,0c1.1,0,2,0.9,2,2l0,0c0,1.1-0.9,2-2,2l0,0
		C-2,584.8-2.9,583.9-2.9,582.8z M-2.9,572.8c0-1.1,0.9-2,2-2l0,0c1.1,0,2,0.9,2,2l0,0c0,1.1-0.9,2-2,2l0,0
		C-2,574.8-2.9,573.9-2.9,572.8z M-2.9,562.8c0-1.1,0.9-2,2-2l0,0c1.1,0,2,0.9,2,2l0,0c0,1.1-0.9,2-2,2l0,0
		C-2,564.8-2.9,563.9-2.9,562.8z M-2.9,552.9c0-1.1,0.9-2,2-2l0,0c1.1,0,2,0.9,2,2l0,0c0,1.1-0.9,2-2,2l0,0
		C-2,554.9-2.9,554-2.9,552.9z M-2.9,542.9c0-1.1,0.9-2,2-2l0,0c1.1,0,2,0.9,2,2l0,0c0,1.1-0.9,2-2,2l0,0
		C-2,544.9-2.9,544-2.9,542.9z M-2.9,532.9c0-1.1,0.9-2,2-2l0,0c1.1,0,2,0.9,2,2l0,0c0,1.1-0.9,2-2,2l0,0
		C-2,534.9-2.9,534-2.9,532.9z M-2.9,523c0-1.1,0.9-2,2-2l0,0c1.1,0,2,0.9,2,2l0,0c0,1.1-0.9,2-2,2l0,0C-2,525-2.9,524.1-2.9,523z
		 M-2.9,513c0-1.1,0.9-2,2-2l0,0c1.1,0,2,0.9,2,2l0,0c0,1.1-0.9,2-2,2l0,0C-2,515-2.9,514.1-2.9,513z M-2.9,503c0-1.1,0.9-2,2-2l0,0
		c1.1,0,2,0.9,2,2l0,0c0,1.1-0.9,2-2,2l0,0C-2,505-2.9,504.1-2.9,503z M-2.9,493.1c0-1.1,0.9-2,2-2l0,0c1.1,0,2,0.9,2,2l0,0
		c0,1.1-0.9,2-2,2l0,0C-2,495.1-2.9,494.2-2.9,493.1z"/>
	<path class="st1" d="M-0.9,485.1c-0.5,0-1-0.2-1.4-0.6c-0.4-0.4-0.6-0.9-0.6-1.4s0.2-1,0.6-1.4c0.8-0.7,2.1-0.7,2.8,0
		c0.4,0.4,0.6,0.9,0.6,1.4s-0.2,1-0.6,1.4S-0.4,485.1-0.9,485.1z"/>
	<path class="st1" d="M356.3,483.1c0-1.1,0.9-2,2-2l0,0c1.1,0,2,0.9,2,2l0,0c0,1.1-0.9,2-2,2l0,0
		C357.2,485.1,356.3,484.2,356.3,483.1z M346.3,483.1c0-1.1,0.9-2,2-2l0,0c1.1,0,2,0.9,2,2l0,0c0,1.1-0.9,2-2,2l0,0
		C347.2,485.1,346.3,484.2,346.3,483.1z M336.3,483.1c0-1.1,0.9-2,2-2l0,0c1.1,0,2,0.9,2,2l0,0c0,1.1-0.9,2-2,2l0,0
		C337.2,485.1,336.3,484.2,336.3,483.1z M326.3,483.1c0-1.1,0.9-2,2-2l0,0c1.1,0,2,0.9,2,2l0,0c0,1.1-0.9,2-2,2l0,0
		C327.2,485.1,326.3,484.2,326.3,483.1z M316.4,483.1c0-1.1,0.9-2,2-2l0,0c1.1,0,2,0.9,2,2l0,0c0,1.1-0.9,2-2,2l0,0
		C317.3,485.1,316.4,484.2,316.4,483.1z M306.4,483.1c0-1.1,0.9-2,2-2l0,0c1.1,0,2,0.9,2,2l0,0c0,1.1-0.9,2-2,2l0,0
		C307.3,485.1,306.4,484.2,306.4,483.1z M296.4,483.1c0-1.1,0.9-2,2-2l0,0c1.1,0,2,0.9,2,2l0,0c0,1.1-0.9,2-2,2l0,0
		C297.3,485.1,296.4,484.2,296.4,483.1z M286.4,483.1c0-1.1,0.9-2,2-2l0,0c1.1,0,2,0.9,2,2l0,0c0,1.1-0.9,2-2,2l0,0
		C287.3,485.1,286.4,484.2,286.4,483.1z M276.5,483.1c0-1.1,0.9-2,2-2l0,0c1.1,0,2,0.9,2,2l0,0c0,1.1-0.9,2-2,2l0,0
		C277.4,485.1,276.5,484.2,276.5,483.1z M266.5,483.1c0-1.1,0.9-2,2-2l0,0c1.1,0,2,0.9,2,2l0,0c0,1.1-0.9,2-2,2l0,0
		C267.4,485.1,266.5,484.2,266.5,483.1z M256.5,483.1c0-1.1,0.9-2,2-2l0,0c1.1,0,2,0.9,2,2l0,0c0,1.1-0.9,2-2,2l0,0
		C257.4,485.1,256.5,484.2,256.5,483.1z M246.5,483.1c0-1.1,0.9-2,2-2l0,0c1.1,0,2,0.9,2,2l0,0c0,1.1-0.9,2-2,2l0,0
		C247.4,485.1,246.5,484.2,246.5,483.1z M236.5,483.1c0-1.1,0.9-2,2-2l0,0c1.1,0,2,0.9,2,2l0,0c0,1.1-0.9,2-2,2l0,0
		C237.4,485.1,236.5,484.2,236.5,483.1z M226.6,483.1c0-1.1,0.9-2,2-2l0,0c1.1,0,2,0.9,2,2l0,0c0,1.1-0.9,2-2,2l0,0
		C227.5,485.1,226.6,484.2,226.6,483.1z M216.6,483.1c0-1.1,0.9-2,2-2l0,0c1.1,0,2,0.9,2,2l0,0c0,1.1-0.9,2-2,2l0,0
		C217.5,485.1,216.6,484.2,216.6,483.1z M206.6,483.1c0-1.1,0.9-2,2-2l0,0c1.1,0,2,0.9,2,2l0,0c0,1.1-0.9,2-2,2l0,0
		C207.5,485.1,206.6,484.2,206.6,483.1z M196.6,483.1c0-1.1,0.9-2,2-2l0,0c1.1,0,2,0.9,2,2l0,0c0,1.1-0.9,2-2,2l0,0
		C197.5,485.1,196.6,484.2,196.6,483.1z M186.6,483.1c0-1.1,0.9-2,2-2l0,0c1.1,0,2,0.9,2,2l0,0c0,1.1-0.9,2-2,2l0,0
		C187.5,485.1,186.6,484.2,186.6,483.1z M176.7,483.1c0-1.1,0.9-2,2-2l0,0c1.1,0,2,0.9,2,2l0,0c0,1.1-0.9,2-2,2l0,0
		C177.6,485.1,176.7,484.2,176.7,483.1z M166.7,483.1c0-1.1,0.9-2,2-2l0,0c1.1,0,2,0.9,2,2l0,0c0,1.1-0.9,2-2,2l0,0
		C167.6,485.1,166.7,484.2,166.7,483.1z M156.7,483.1c0-1.1,0.9-2,2-2l0,0c1.1,0,2,0.9,2,2l0,0c0,1.1-0.9,2-2,2l0,0
		C157.6,485.1,156.7,484.2,156.7,483.1z M146.7,483.1c0-1.1,0.9-2,2-2l0,0c1.1,0,2,0.9,2,2l0,0c0,1.1-0.9,2-2,2l0,0
		C147.6,485.1,146.7,484.2,146.7,483.1z M136.8,483.1c0-1.1,0.9-2,2-2l0,0c1.1,0,2,0.9,2,2l0,0c0,1.1-0.9,2-2,2l0,0
		C137.7,485.1,136.8,484.2,136.8,483.1z M126.8,483.1c0-1.1,0.9-2,2-2l0,0c1.1,0,2,0.9,2,2l0,0c0,1.1-0.9,2-2,2l0,0
		C127.7,485.1,126.8,484.2,126.8,483.1z M116.8,483.1c0-1.1,0.9-2,2-2l0,0c1.1,0,2,0.9,2,2l0,0c0,1.1-0.9,2-2,2l0,0
		C117.7,485.1,116.8,484.2,116.8,483.1z M106.8,483.1c0-1.1,0.9-2,2-2l0,0c1.1,0,2,0.9,2,2l0,0c0,1.1-0.9,2-2,2l0,0
		C107.7,485.1,106.8,484.2,106.8,483.1z M96.8,483.1c0-1.1,0.9-2,2-2l0,0c1.1,0,2,0.9,2,2l0,0c0,1.1-0.9,2-2,2l0,0
		C97.8,485.1,96.8,484.2,96.8,483.1z M86.9,483.1c0-1.1,0.9-2,2-2l0,0c1.1,0,2,0.9,2,2l0,0c0,1.1-0.9,2-2,2l0,0
		C87.8,485.1,86.9,484.2,86.9,483.1z M76.9,483.1c0-1.1,0.9-2,2-2l0,0c1.1,0,2,0.9,2,2l0,0c0,1.1-0.9,2-2,2l0,0
		C77.8,485.1,76.9,484.2,76.9,483.1z M66.9,483.1c0-1.1,0.9-2,2-2l0,0c1.1,0,2,0.9,2,2l0,0c0,1.1-0.9,2-2,2l0,0
		C67.8,485.1,66.9,484.2,66.9,483.1z M56.9,483.1c0-1.1,0.9-2,2-2l0,0c1.1,0,2,0.9,2,2l0,0c0,1.1-0.9,2-2,2l0,0
		C57.8,485.1,56.9,484.2,56.9,483.1z M47,483.1c0-1.1,0.9-2,2-2l0,0c1.1,0,2,0.9,2,2l0,0c0,1.1-0.9,2-2,2l0,0
		C47.8,485.1,47,484.2,47,483.1z M37,483.1c0-1.1,0.9-2,2-2l0,0c1.1,0,2,0.9,2,2l0,0c0,1.1-0.9,2-2,2l0,0
		C37.9,485.1,37,484.2,37,483.1z M27,483.1c0-1.1,0.9-2,2-2l0,0c1.1,0,2,0.9,2,2l0,0c0,1.1-0.9,2-2,2l0,0
		C27.9,485.1,27,484.2,27,483.1z M17,483.1c0-1.1,0.9-2,2-2l0,0c1.1,0,2,0.9,2,2l0,0c0,1.1-0.9,2-2,2l0,0
		C17.9,485.1,17,484.2,17,483.1z M7,483.1c0-1.1,0.9-2,2-2l0,0c1.1,0,2,0.9,2,2l0,0c0,1.1-0.9,2-2,2l0,0C7.9,485.1,7,484.2,7,483.1z
		"/>
	<path class="st1" d="M368.3,485.1c-0.5,0-1-0.2-1.4-0.6c-0.4-0.4-0.6-0.9-0.6-1.4s0.2-1,0.6-1.4c0.8-0.7,2.1-0.7,2.8,0
		c0.4,0.4,0.6,0.9,0.6,1.4s-0.2,1-0.6,1.4S368.8,485.1,368.3,485.1z"/>
</g>
<g class="st3">
	<path class="st1" d="M577.4,637.7c0-2.8,1.2-5,3.1-6.8c0.9-0.9,0.9-2.4,0-3.3c-1.9-1.8-3.1-4.1-3.1-6.8v-14.1
		c0-4.5-1.7-6.1-4.8-6.6c-1.2-0.2-2-1.1-2-2.3v-1.3c0-1.4,1.2-2.5,2.6-2.3c6.8,0.9,10.5,5.5,10.5,13.1V621c0,3.2,2,4.9,4.1,5.8
		c0.9,0.4,1.5,1.2,1.5,2.2v1c0,0.9-0.6,1.8-1.4,2.1c-2,0.9-4.1,2.6-4.1,5.9v13.7c0,7.6-3.7,12.1-10.5,13c-1.4,0.2-2.6-0.9-2.6-2.3
		v-1.3c0-1.1,0.8-2.1,2-2.3c3.1-0.5,4.9-2.2,4.9-6.6v-14.5H577.4z"/>
</g>
<g>
	<path class="st0" d="M170.4,371.6c2.9,0,4.4,1.6,4.4,4.7c0,3.1-1.5,4.7-4.4,4.7h-2.9v-9.3h2.9V371.6z M173.8,376.2
		c0-2.6-1.1-3.7-3.4-3.7h-1.8v7.5h1.8C172.7,380,173.8,378.8,173.8,376.2z"/>
	<path class="st0" d="M182,376.7v2.1c0,1.9-2,2.2-2.9,2.2s-2.9-0.3-2.9-2.3c0-2.3,3-2.3,3.7-2.3c0.6,0,1.1,0.1,1.1,0.1
		c0-1.3-0.8-1.7-2-1.7c-1,0-1.8,0.2-2,0.3v-1c0.5-0.2,1.2-0.4,2.1-0.4C181,373.8,182,374.8,182,376.7z M181,377.5
		c0,0-0.5-0.1-1.2-0.1c-0.8,0-2.5,0.1-2.5,1.4c0,1.1,1.1,1.3,1.9,1.3c0.9,0,1.9-0.2,1.9-1.3C181,377.7,181,377.5,181,377.5z"/>
	<path class="st0" d="M185.3,379.1c0,0.7,0.3,1,1,1c0.3,0,0.6-0.1,0.8-0.2v1c-0.3,0.1-0.6,0.2-0.9,0.2c-0.6,0-1.9-0.2-1.9-2v-4.2
		h-1.2V374h1.2v-2h1v2h1.8v0.9h-1.8L185.3,379.1L185.3,379.1z"/>
	<path class="st0" d="M194.1,376.7v2.1c0,1.9-2,2.2-2.9,2.2s-2.9-0.3-2.9-2.3c0-2.3,3-2.3,3.7-2.3c0.6,0,1.1,0.1,1.1,0.1
		c0-1.3-0.8-1.7-2-1.7c-1,0-1.8,0.2-2,0.3v-1c0.5-0.2,1.2-0.4,2.1-0.4C193.1,373.8,194.1,374.8,194.1,376.7z M193.1,377.5
		c0,0-0.5-0.1-1.2-0.1c-0.8,0-2.5,0.1-2.5,1.4c0,1.1,1.1,1.3,1.9,1.3c0.9,0,1.9-0.2,1.9-1.3C193.1,377.7,193.1,377.5,193.1,377.5z"
		/>
</g>
<path class="st1" d="M197.6,323.6h-33.9c-0.6,0-1.1,0.5-1.1,1.1v0.2c0,0.6,0.5,1.1,1.1,1.1h33.9c0.6,0,1.1-0.5,1.1-1.1v-0.2
	C198.6,324.1,198.2,323.6,197.6,323.6z"/>
<path class="st1" d="M197.6,316.4h-30.8c-0.6,0-1.1,0.5-1.1,1v0.2c0,0.6,0.5,1.1,1.1,1.1h30.8c0.6,0,1.1-0.5,1.1-1.1v-0.2
	C198.6,316.9,198.2,316.4,197.6,316.4z"/>
<path class="st1" d="M197.6,309.3h-20c-0.6,0-1.1,0.5-1.1,1.1v0.2c0,0.6,0.5,1.1,1.1,1.1h20c0.6,0,1.1-0.5,1.1-1.1v-0.2
	C198.6,309.7,198.2,309.3,197.6,309.3z"/>
<path class="st1" d="M197.6,302.1h-20c-0.6,0-1.1,0.5-1.1,1.1v0.2c0,0.6,0.5,1.1,1.1,1.1h20c0.6,0,1.1-0.5,1.1-1.1v-0.2
	C198.6,302.5,198.2,302.1,197.6,302.1z"/>
<path class="st1" d="M197.6,330.8h-33.9c-0.6,0-1.1,0.5-1.1,1.1v0.1c0,0.6,0.5,1.1,1.1,1.1h33.9c0.6,0,1.1-0.5,1.1-1.1v-0.2
	C198.6,331.3,198.2,330.8,197.6,330.8z"/>
<path class="st1" d="M197.6,338h-33.9c-0.6,0-1.1,0.5-1.1,1.1v0.2c0,0.6,0.5,1.1,1.1,1.1h33.9c0.6,0,1.1-0.5,1.1-1.1V339
	C198.6,338.5,198.2,338,197.6,338z"/>
<path class="st1" d="M205.2,282.4h-35.3c-3,0-6.8,1.7-8.7,4l-8.3,9.4c-1.9,2.2-3.4,6-3.4,8.9v45.2c0,3.6,2.9,6.6,6.6,6.6h49.1
	c3.6,0,6.6-2.9,6.6-6.6v-61C211.8,285.3,208.8,282.4,205.2,282.4z M156.4,298.9l8.3-9.4c0.3-0.4,0.8-0.7,1.3-1l3.4,3.4l-13.9,8.5
	C155.8,299.8,156.1,299.3,156.4,298.9z M207.1,349.9c0,1-0.8,1.8-1.8,1.8h-49.1c-1,0-1.8-0.8-1.8-1.8v-43.3l20.2-12.3
	c0.6-0.4,1-1,1.1-1.7c0.1-0.7-0.2-1.4-0.7-2l-3.5-3.5h33.9c1,0,1.8,0.8,1.8,1.8v61H207.1z"/>
<g>
	<path class="st1" d="M74.6,355.8c-0.2,0-0.4,0-0.6-0.1c-0.8-0.3-1.1-1.2-0.8-2c0.1-0.3,14.6-33.4,58.2-33.4c0.3,0,0.6,0,0.8,0
		c0.8,0,1.5,0.7,1.5,1.5c0,0.8-0.7,1.5-1.5,1.5c-0.3,0-0.5,0-0.8,0c-41.7,0-55.4,31.2-55.5,31.5C75.7,355.4,75.2,355.8,74.6,355.8z"
		/>
	<g>
		<polygon class="st1" points="130.7,326.8 139.4,322.2 131.1,316.9 		"/>
	</g>
</g>
<g>
	<path class="st1" d="M578.9,342.4h4.3v1h-4.3v3.2h4.9v1h-5.9v-9.3h5.9v1h-4.9V342.4z"/>
	<path class="st1" d="M591.3,343v4.6h-1V343c0-0.7-0.2-1.6-1.9-1.6c-0.7,0-1.4,0.1-1.8,0.3v5.8h-1v-6.4c0.3-0.2,1.5-0.7,3-0.7
		C590.3,340.4,591.3,341.4,591.3,343z"/>
	<path class="st1" d="M596.3,346.7c0.7,0,1.3-0.1,2-0.4v1c-0.7,0.3-1.4,0.4-2.1,0.4c-1.5,0-3.3-0.6-3.3-3.6s1.8-3.6,3.3-3.6
		c0.7,0,1.4,0.1,2.1,0.4v1c-0.6-0.3-1.3-0.4-2-0.4c-1.7,0-2.4,0.8-2.4,2.6C594,345.9,594.7,346.7,596.3,346.7z"/>
	<path class="st1" d="M600.9,341.8v5.8h-1v-6.4c0.4-0.2,1.7-0.7,3.4-0.7v1C602.3,341.4,601.5,341.6,600.9,341.8z"/>
	<path class="st1" d="M610.5,340.6l-2.9,7.7c-0.6,1.7-1.5,2-2.2,2c-0.3,0-0.5-0.1-0.7-0.1v-0.9c0.1,0.1,0.3,0.1,0.6,0.1
		c1,0,1.5-1.9,1.5-1.9l-2.6-6.9h1.1l2,5.5l2-5.5C609.3,340.6,610.5,340.6,610.5,340.6z"/>
	<path class="st1" d="M617.7,344.1c0,2.9-1.7,3.5-3.2,3.5c-0.6,0-1.2-0.1-1.7-0.3v2.7h-1v-7.5c0-0.5,0.2-2.2,2.9-2.2
		C615.7,340.4,617.7,340.9,617.7,344.1z M616.7,344.1c0-2.5-1.2-2.8-2.1-2.8c-1.2,0-1.9,0.4-1.9,1.2v3.8c0.5,0.2,1.1,0.4,1.7,0.4
		C616,346.7,616.7,345.9,616.7,344.1z"/>
	<path class="st1" d="M620.9,345.7c0,0.7,0.3,1,1,1c0.3,0,0.6-0.1,0.8-0.2v1c-0.3,0.1-0.6,0.2-0.9,0.2c-0.6,0-1.9-0.2-1.9-2v-4.2
		h-1.2v-0.9h1.2v-2h1v2h1.8v0.9h-1.8L620.9,345.7L620.9,345.7z"/>
	<path class="st1" d="M625.4,339.3h-1.1v-1.1h1.1V339.3z M625.3,340.6h-1v7h1V340.6z"/>
	<path class="st1" d="M633.7,344c0,3-1.8,3.6-3.3,3.6s-3.3-0.6-3.3-3.6s1.8-3.6,3.3-3.6S633.7,341.1,633.7,344z M632.7,344
		c0-1.9-0.7-2.7-2.3-2.7s-2.3,0.8-2.3,2.7s0.7,2.7,2.3,2.7S632.7,345.9,632.7,344z"/>
	<path class="st1" d="M641,343v4.6h-1V343c0-0.7-0.2-1.6-1.9-1.6c-0.7,0-1.4,0.1-1.8,0.3v5.8h-1v-6.4c0.3-0.2,1.5-0.7,3-0.7
		C640,340.4,641,341.4,641,343z"/>
</g>
<g>
	<path class="st1" d="M582.1,399.1c0,1.9-1.1,2.9-3.2,2.9h-2.3v3.6h-1v-9.3h3.3C580.9,396.2,582.1,397.2,582.1,399.1z M581.1,399.1
		c0-0.9-0.3-1.9-2.4-1.9h-2.2v3.8h2.2C580.8,401,581.1,400,581.1,399.1z"/>
	<path class="st1" d="M584.6,399.8v5.8h-1v-6.4c0.4-0.2,1.7-0.7,3.4-0.7v1C586,399.4,585.2,399.6,584.6,399.8z"/>
	<path class="st1" d="M589.6,397.3h-1.1v-1.1h1.1V397.3z M589.5,398.6h-1v7h1V398.6z"/>
	<path class="st1" d="M597.4,398.6l-2.7,7h-1l-2.7-7h1.1l2.1,5.7l2.1-5.7H597.4z"/>
	<path class="st1" d="M604,401.3v2.1c0,1.9-2,2.2-2.9,2.2s-2.9-0.3-2.9-2.3c0-2.3,3-2.3,3.7-2.3c0.6,0,1.1,0.1,1.1,0.1
		c0-1.3-0.8-1.7-2-1.7c-1,0-1.8,0.2-2,0.3v-1c0.5-0.2,1.2-0.4,2.1-0.4C603,398.4,604,399.4,604,401.3z M603,402.1
		c0,0-0.5-0.1-1.2-0.1c-0.8,0-2.5,0.1-2.5,1.4c0,1.1,1.1,1.3,1.9,1.3s1.9-0.2,1.9-1.3C603,402.4,603,402.1,603,402.1z"/>
	<path class="st1" d="M607.3,403.7c0,0.7,0.3,1,1,1c0.3,0,0.6-0.1,0.8-0.2v1c-0.3,0.1-0.6,0.2-0.9,0.2c-0.6,0-1.9-0.2-1.9-2v-4.2
		h-1.2v-0.9h1.2v-2h1v2h1.8v0.9h-1.8L607.3,403.7L607.3,403.7z"/>
	<path class="st1" d="M616.5,402.2c0,0.3,0,0.5,0,0.5h-5.1c0.1,1.4,0.8,2,2.3,2c1,0,1.8-0.2,2.4-0.5v1c-0.7,0.3-1.5,0.5-2.5,0.5
		c-1.5,0-3.2-0.6-3.2-3.5c0-0.7-0.1-3.7,3.1-3.7S616.5,401.9,616.5,402.2z M615.4,401.7c0-0.3-0.1-2.4-2-2.4c-1.4,0-1.9,0.6-2,2.4
		H615.4z"/>
	<path class="st1" d="M630.2,405.5h-1.3l-3.7-4.3l-1,1.1v3.1h-1v-9.3h1v4.8l4.3-4.8h1.4l-4,4.4L630.2,405.5z"/>
	<path class="st1" d="M637.2,402.2c0,0.3,0,0.5,0,0.5h-5.1c0.1,1.4,0.8,2,2.3,2c1,0,1.8-0.2,2.4-0.5v1c-0.7,0.3-1.5,0.5-2.5,0.5
		c-1.5,0-3.2-0.6-3.2-3.5c0-0.7-0.1-3.7,3.1-3.7S637.2,401.9,637.2,402.2z M636.2,401.7c0-0.3-0.1-2.4-2-2.4c-1.4,0-1.9,0.6-2,2.4
		H636.2z"/>
	<path class="st1" d="M644.2,398.6l-2.9,7.7c-0.6,1.7-1.5,2-2.2,2c-0.3,0-0.5-0.1-0.7-0.1v-0.9c0.1,0.1,0.3,0.1,0.6,0.1
		c1,0,1.5-1.9,1.5-1.9l-2.6-6.9h1.1l2,5.5l2-5.5L644.2,398.6L644.2,398.6z"/>
</g>
<g>
	<path class="st1" d="M637.2,369.2v14.4h-5.8v-8.7h-6.5v8.7h-5.8v-8.7h-15.9c-1.3,5.3-6.1,9.4-11.9,9.4c-6.8,0-12.3-5.6-12.3-12.3
		c0-6.8,5.5-12.2,12.3-12.2c5.8,0,10.6,4,11.9,9.4C603.2,369.2,637.2,369.2,637.2,369.2z M597.8,372c0-3.6-2.9-6.5-6.5-6.5
		s-6.6,2.9-6.6,6.5s2.9,6.5,6.6,6.5C594.9,378.5,597.8,375.6,597.8,372z"/>
</g>
<g>
	<path class="st1" d="M290,656.6c2.9,0,4.4,1.6,4.4,4.7c0,3.1-1.5,4.7-4.4,4.7h-3v-9.3h3V656.6z M293.4,661.3c0-2.6-1.1-3.7-3.4-3.7
		h-1.8v7.5h1.8C292.3,665,293.4,663.9,293.4,661.3z"/>
	<path class="st1" d="M302,662.6c0,0.3,0,0.5,0,0.5h-5.1c0.1,1.4,0.8,2,2.3,2c1,0,1.8-0.2,2.4-0.5v1c-0.7,0.3-1.5,0.5-2.5,0.5
		c-1.5,0-3.2-0.6-3.2-3.5c0-0.7-0.1-3.7,3.1-3.7S302,662.3,302,662.6z M301,662.2c0-0.3-0.1-2.4-2-2.4c-1.4,0-1.9,0.6-2,2.4H301z"/>
	<path class="st1" d="M306.8,665.1c0.7,0,1.3-0.1,2-0.4v1c-0.7,0.3-1.4,0.4-2.1,0.4c-1.5,0-3.3-0.6-3.3-3.6s1.8-3.6,3.3-3.6
		c0.7,0,1.4,0.1,2.1,0.4v1c-0.6-0.3-1.3-0.4-2-0.4c-1.7,0-2.4,0.8-2.4,2.6C304.4,664.3,305.2,665.1,306.8,665.1z"/>
	<path class="st1" d="M311.4,660.2v5.8h-1v-6.4c0.4-0.2,1.7-0.7,3.4-0.7v1C312.8,659.8,312,660,311.4,660.2z"/>
	<path class="st1" d="M321,659l-2.9,7.7c-0.6,1.7-1.5,2-2.2,2c-0.3,0-0.5-0.1-0.7-0.1v-0.9c0.1,0.1,0.3,0.1,0.6,0.1
		c1,0,1.5-1.9,1.5-1.9l-2.6-6.9h1.1l2,5.5l2-5.5H321L321,659z"/>
	<path class="st1" d="M328.2,662.5c0,2.9-1.7,3.5-3.2,3.5c-0.6,0-1.2-0.1-1.7-0.3v2.7h-1V661c0-0.5,0.2-2.2,2.9-2.2
		C326.2,658.8,328.2,659.3,328.2,662.5z M327.1,662.5c0-2.5-1.2-2.8-2.1-2.8c-1.2,0-1.9,0.4-1.9,1.2v3.8c0.5,0.2,1.1,0.4,1.7,0.4
		C326.5,665.1,327.1,664.4,327.1,662.5z"/>
	<path class="st1" d="M331.4,664.1c0,0.7,0.3,1,1,1c0.3,0,0.6-0.1,0.8-0.2v1c-0.3,0.1-0.6,0.2-0.9,0.2c-0.6,0-1.9-0.2-1.9-2v-4.2
		h-1.2V659h1.2v-2h1v2h1.8v0.9h-1.8V664.1z"/>
	<path class="st1" d="M335.9,657.7h-1.1v-1.1h1.1V657.7z M335.8,659h-1v7h1V659z"/>
	<path class="st1" d="M344.2,662.4c0,3-1.8,3.6-3.3,3.6s-3.3-0.6-3.3-3.6s1.8-3.6,3.3-3.6C342.4,658.8,344.2,659.5,344.2,662.4z
		 M343.2,662.4c0-1.9-0.7-2.7-2.3-2.7c-1.6,0-2.3,0.8-2.3,2.7s0.7,2.7,2.3,2.7S343.2,664.3,343.2,662.4z"/>
	<path class="st1" d="M352.7,660.7v5.2h-1.2v-5.2c0-0.8-0.2-1.8-2.1-1.8c-0.8,0-1.6,0.2-2.1,0.3v6.7h-1.2v-7.3
		c0.4-0.2,1.7-0.8,3.4-0.8C351.5,657.8,352.7,658.9,352.7,660.7z"/>
</g>
<g>
	<path class="st1" d="M295.6,717.2c0,1.9-1.1,2.9-3.2,2.9H290v3.6h-1v-9.3h3.3C294.4,714.3,295.6,715.3,295.6,717.2z M294.6,717.2
		c0-0.9-0.3-1.9-2.4-1.9H290v3.8h2.2C294.3,719.1,294.6,718.1,294.6,717.2z"/>
	<path class="st1" d="M303,716.7v4c0,1.9-1.1,3.1-2.9,3.1s-2.9-1.1-2.9-3.1v-4h1v4.1c0,1.4,0.6,2.1,1.9,2.1s1.9-0.6,1.9-2.1v-4.1
		H303z"/>
	<path class="st1" d="M310.9,720.1c0,3.2-1.9,3.7-3.1,3.7c-2.7,0-2.9-1.7-2.9-2.2V714h1v2.8c0.5-0.2,1.1-0.3,1.7-0.3
		C309.2,716.5,310.9,717.2,310.9,720.1z M309.9,720.1c0-1.8-0.7-2.6-2.2-2.6c-0.6,0-1.2,0.1-1.7,0.4v3.8c0,0.8,0.6,1.2,1.8,1.2
		C308.7,722.9,309.9,722.6,309.9,720.1z"/>
	<path class="st1" d="M312.8,723.7V714h1v9.7H312.8z"/>
	<path class="st1" d="M317.2,715.4h-1.1v-1.1h1.1V715.4z M317.1,716.7h-1v7h1V716.7z"/>
	<path class="st1" d="M322.3,722.8c0.7,0,1.3-0.1,2-0.4v1c-0.7,0.3-1.4,0.4-2.1,0.4c-1.5,0-3.3-0.6-3.3-3.6s1.8-3.6,3.3-3.6
		c0.7,0,1.4,0.1,2.1,0.4v1c-0.6-0.3-1.3-0.4-2-0.4c-1.7,0-2.4,0.8-2.4,2.6C319.9,722,320.6,722.8,322.3,722.8z"/>
	<path class="st1" d="M337.7,723.7h-1.3l-3.7-4.3l-1,1.1v3.1h-1v-9.3h1v4.8l4.3-4.8h1.4l-4,4.4L337.7,723.7z"/>
	<path class="st1" d="M344.7,720.3c0,0.3,0,0.5,0,0.5h-5.1c0.1,1.4,0.8,2,2.3,2c1,0,1.8-0.2,2.4-0.5v1c-0.7,0.3-1.5,0.5-2.5,0.5
		c-1.5,0-3.2-0.6-3.2-3.5c0-0.7-0.1-3.7,3.1-3.7S344.7,720,344.7,720.3z M343.7,719.9c0-0.3-0.1-2.4-2-2.4c-1.4,0-1.9,0.6-2,2.4
		H343.7z"/>
	<path class="st1" d="M351.7,716.7l-2.9,7.7c-0.6,1.7-1.5,2-2.2,2c-0.3,0-0.5-0.1-0.7-0.1v-0.9c0.1,0.1,0.3,0.1,0.6,0.1
		c1,0,1.5-1.9,1.5-1.9l-2.6-6.9h1.1l2,5.5l2-5.5L351.7,716.7L351.7,716.7z"/>
</g>
<g>
	<path class="st4" d="M324.4,687.8c1.3-5.4,6.1-9.4,11.9-9.4c6.8,0,12.3,5.5,12.3,12.2c0,6.7-5.5,12.3-12.3,12.3
		c-5.8,0-10.6-4.1-11.9-9.4h-15.9v8.7h-5.8v-8.7h-6.5v8.7h-5.8v-14.4L324.4,687.8L324.4,687.8z M336.3,697.1c3.6,0,6.6-2.9,6.6-6.5
		c0-3.6-2.9-6.5-6.6-6.5c-3.6,0-6.5,2.9-6.5,6.5C329.8,694.3,332.7,697.1,336.3,697.1z"/>
</g>
<g>
	<path class="st0" d="M728.2,371.6c2.9,0,4.4,1.6,4.4,4.7c0,3.1-1.5,4.7-4.4,4.7h-2.9v-9.3h2.9V371.6z M731.6,376.2
		c0-2.6-1.1-3.7-3.4-3.7h-1.8v7.5h1.8C730.5,380,731.6,378.8,731.6,376.2z"/>
	<path class="st0" d="M735.7,372.7h-1.1v-1.1h1.1V372.7z M735.6,373.9h-1v7h1V373.9z"/>
	<path class="st0" d="M743.1,375.9v5.3c0,1.1-0.5,2.4-3,2.4c-0.8,0-1.5-0.1-2-0.3v-1c0.4,0.1,1.1,0.3,1.9,0.3c1.9,0,2.1-0.7,2.1-1.4
		v-0.7c-0.5,0.2-1.1,0.3-1.6,0.3c-1.4,0-3.1-0.6-3.1-3.4c0-3.1,1.9-3.6,3-3.6C743,373.8,743.1,375.4,743.1,375.9z M742.1,375.9
		c0-0.8-0.6-1.2-1.8-1.2c-0.8,0-2,0.3-2,2.7c0,2.2,1.1,2.5,2.1,2.5c0.6,0,1.1-0.1,1.6-0.3v-3.7H742.1z"/>
	<path class="st0" d="M746.3,372.7h-1.1v-1.1h1.1V372.7z M746.3,373.9h-1v7h1V373.9z"/>
	<path class="st0" d="M750,379.1c0,0.7,0.3,1,1,1c0.3,0,0.6-0.1,0.8-0.2v1c-0.3,0.1-0.6,0.2-0.9,0.2c-0.6,0-1.9-0.2-1.9-2v-4.2h-1.2
		V374h1.2v-2h1v2h1.8v0.9H750V379.1z"/>
	<path class="st0" d="M758.8,376.7v2.1c0,1.9-2,2.2-2.9,2.2s-2.9-0.3-2.9-2.3c0-2.3,3-2.3,3.7-2.3c0.6,0,1.1,0.1,1.1,0.1
		c0-1.3-0.8-1.7-2-1.7c-1,0-1.8,0.2-2,0.3v-1c0.5-0.2,1.2-0.4,2.1-0.4C757.8,373.8,758.8,374.8,758.8,376.7z M757.8,377.5
		c0,0-0.5-0.1-1.2-0.1c-0.8,0-2.5,0.1-2.5,1.4c0,1.1,1.1,1.3,1.9,1.3c0.9,0,1.9-0.2,1.9-1.3C757.8,377.7,757.8,377.5,757.8,377.5z"
		/>
	<path class="st0" d="M760.8,380.9v-9.7h1v9.7H760.8z"/>
	<path class="st0" d="M764.1,380.9v-9.7h1v9.7H764.1z"/>
	<path class="st0" d="M772.7,373.9l-2.9,7.7c-0.6,1.7-1.5,2-2.2,2c-0.3,0-0.5-0.1-0.7-0.1v-0.9c0.1,0.1,0.3,0.1,0.6,0.1
		c1,0,1.5-1.9,1.5-1.9l-2.6-6.9h1.1l2,5.5l2-5.5L772.7,373.9L772.7,373.9z"/>
	<path class="st0" d="M784.9,378.5c0,1.6-1.2,2.5-3.3,2.5c-1.2,0-2.1-0.3-2.8-0.7v-1.1c0.5,0.4,1.4,0.7,2.7,0.7
		c1.1,0,2.4-0.3,2.4-1.5c0-2.7-5.2-1.4-5.2-4.5c0-1.3,0.8-2.6,3.2-2.6c1,0,1.7,0.3,2.3,0.6v1c-0.5-0.3-1.3-0.6-2.2-0.6
		c-1.5,0-2.3,0.6-2.3,1.6C779.8,376.1,784.9,375,784.9,378.5z"/>
	<path class="st0" d="M787.9,372.7h-1.1v-1.1h1.1V372.7z M787.8,373.9h-1v7h1V373.9z"/>
	<path class="st0" d="M795.4,375.9v5.3c0,1.1-0.5,2.4-3,2.4c-0.8,0-1.5-0.1-2-0.3v-1c0.4,0.1,1.1,0.3,1.9,0.3c1.9,0,2.1-0.7,2.1-1.4
		v-0.7c-0.5,0.2-1.1,0.3-1.6,0.3c-1.4,0-3.1-0.6-3.1-3.4c0-3.1,1.9-3.6,3-3.6C795.2,373.8,795.4,375.4,795.4,375.9z M794.4,375.9
		c0-0.8-0.6-1.2-1.8-1.2c-0.8,0-2,0.3-2,2.7c0,2.2,1.1,2.5,2.1,2.5c0.6,0,1.1-0.1,1.6-0.3v-3.7H794.4z"/>
	<path class="st0" d="M803,376.4v4.6h-1v-4.6c0-0.7-0.2-1.6-1.9-1.6c-0.7,0-1.4,0.1-1.8,0.3v5.8h-1v-6.4c0.3-0.2,1.5-0.7,3-0.7
		C802,373.8,803,374.7,803,376.4z"/>
	<path class="st0" d="M811,377.5c0,0.3,0,0.5,0,0.5h-5.1c0.1,1.4,0.8,2,2.3,2c1,0,1.8-0.2,2.4-0.5v1c-0.7,0.3-1.5,0.5-2.5,0.5
		c-1.5,0-3.2-0.6-3.2-3.5c0-0.7-0.1-3.7,3.1-3.7S811,377.3,811,377.5z M809.9,377.1c0-0.3-0.1-2.4-2-2.4c-1.4,0-1.9,0.6-2,2.4H809.9
		z"/>
	<path class="st0" d="M815.5,373.8c0.6,0,1.2,0.1,1.7,0.3v-2.8h1v7.6c0,0.5-0.2,2.2-2.9,2.2c-1.1,0-3.1-0.5-3.1-3.7
		C812.3,374.4,814.1,373.8,815.5,373.8z M815.4,380.1c1.2,0,1.9-0.4,1.9-1.2v-3.8c-0.5-0.2-1.1-0.4-1.7-0.4c-1.5,0-2.2,0.8-2.2,2.6
		C813.4,379.8,814.5,380.1,815.4,380.1z"/>
	<path class="st0" d="M744,388.4c2.9,0,4.4,1.6,4.4,4.7c0,3.1-1.5,4.7-4.4,4.7h-2.9v-9.3h2.9V388.4z M747.4,393
		c0-2.6-1.1-3.7-3.4-3.7h-1.8v7.5h1.8C746.3,396.8,747.4,395.6,747.4,393z"/>
	<path class="st0" d="M756.3,394.2c0,3-1.8,3.6-3.3,3.6s-3.3-0.6-3.3-3.6s1.8-3.6,3.3-3.6C754.5,390.6,756.3,391.2,756.3,394.2z
		 M755.3,394.2c0-1.9-0.7-2.7-2.3-2.7s-2.3,0.8-2.3,2.7c0,1.9,0.7,2.7,2.3,2.7S755.3,396.1,755.3,394.2z"/>
	<path class="st0" d="M761.1,396.9c0.7,0,1.3-0.1,2-0.4v1c-0.7,0.3-1.4,0.4-2.1,0.4c-1.5,0-3.3-0.6-3.3-3.6s1.8-3.6,3.3-3.6
		c0.7,0,1.4,0.1,2.1,0.4v1c-0.6-0.3-1.3-0.4-2-0.4c-1.7,0-2.4,0.8-2.4,2.6C758.7,396.1,759.4,396.9,761.1,396.9z"/>
	<path class="st0" d="M770.4,390.7v4c0,1.9-1.1,3.1-2.9,3.1c-1.9,0-2.9-1.1-2.9-3.1v-4h1v4.1c0,1.4,0.6,2.1,1.9,2.1
		c1.3,0,1.9-0.6,1.9-2.1v-4.1H770.4z"/>
	<path class="st0" d="M782.4,393.2v4.6h-1v-4.6c0-0.7-0.2-1.6-1.7-1.6c-0.8,0-1.5,0.2-1.9,0.4c0.2,0.4,0.2,0.7,0.2,1.2v4.6h-1v-4.6
		c0-0.7-0.2-1.6-1.8-1.6c-0.6,0-1.2,0.1-1.7,0.3v5.9h-1v-6.4c0.4-0.2,1.5-0.7,2.8-0.7c0.8,0,1.4,0.2,1.8,0.6
		c0.5-0.2,1.4-0.6,2.6-0.6C781.4,390.6,782.4,391.5,782.4,393.2z"/>
	<path class="st0" d="M790.4,394.3c0,0.3,0,0.5,0,0.5h-5.1c0.1,1.4,0.8,2,2.3,2c1,0,1.8-0.2,2.4-0.5v1c-0.7,0.3-1.5,0.5-2.5,0.5
		c-1.5,0-3.2-0.6-3.2-3.5c0-0.7-0.1-3.7,3.1-3.7S790.4,394.1,790.4,394.3z M789.3,393.9c0-0.3-0.1-2.4-2-2.4c-1.4,0-1.9,0.6-2,2.4
		H789.3z"/>
	<path class="st0" d="M797.8,393.2v4.6h-1v-4.6c0-0.7-0.2-1.6-1.9-1.6c-0.7,0-1.4,0.1-1.8,0.3v5.8h-1v-6.4c0.3-0.2,1.5-0.7,3-0.7
		C796.8,390.6,797.8,391.5,797.8,393.2z"/>
	<path class="st0" d="M801.3,395.9c0,0.7,0.3,1,1,1c0.3,0,0.6-0.1,0.8-0.2v1c-0.3,0.1-0.6,0.2-0.9,0.2c-0.6,0-1.9-0.2-1.9-2v-4.2
		h-1.2v-0.9h1.2v-2h1v2h1.8v0.9h-1.8L801.3,395.9L801.3,395.9z"/>
</g>
<path class="st1" d="M788.6,324.3h-33.9c-0.6,0-1.1,0.5-1.1,1.1v0.2c0,0.6,0.5,1.1,1.1,1.1h33.9c0.6,0,1.1-0.5,1.1-1.1v-0.2
	C789.7,324.8,789.2,324.3,788.6,324.3z"/>
<path class="st1" d="M788.6,316.9h-30.8c-0.6,0-1.1,0.5-1.1,1v0.2c0,0.6,0.5,1.1,1.1,1.1h30.8c0.6,0,1.1-0.5,1.1-1.1V318
	C789.7,317.4,789.2,316.9,788.6,316.9z"/>
<path class="st1" d="M788.6,309.5h-20c-0.6,0-1.1,0.5-1.1,1.1v0.2c0,0.6,0.5,1.1,1.1,1.1h20c0.6,0,1.1-0.5,1.1-1.1v-0.2
	C789.7,310,789.2,309.5,788.6,309.5z"/>
<path class="st1" d="M788.6,302.1h-20c-0.6,0-1.1,0.5-1.1,1.1v0.2c0,0.6,0.5,1.1,1.1,1.1h20c0.6,0,1.1-0.5,1.1-1.1v-0.2
	C789.7,302.5,789.2,302.1,788.6,302.1z"/>
<path class="st1" d="M796.3,282.4H761c-3,0-6.8,1.7-8.7,4l-8.3,9.4c-1.9,2.2-3.4,6-3.4,8.9v45.2c0,3.6,2.9,6.6,6.6,6.6h49.1
	c3.6,0,6.6-2.9,6.6-6.6v-61C802.8,285.3,799.9,282.4,796.3,282.4z M747.5,298.9l8.3-9.4c0.3-0.4,0.8-0.7,1.3-1l3.4,3.4l-13.9,8.5
	C746.9,299.8,747.2,299.3,747.5,298.9z M798.1,349.9c0,1-0.8,1.8-1.8,1.8h-49.1c-1,0-1.8-0.8-1.8-1.8v-43.3l20.2-12.3
	c0.6-0.4,1-1,1.1-1.7c0.1-0.7-0.2-1.4-0.7-2l-3.5-3.5h33.9c1,0,1.8,0.8,1.8,1.8v61H798.1z"/>
<g>
	<path class="st1" d="M801.8,356.5h-60.2c-1.7,0-3-1.3-3-3v-20.6c0-1.7,1.3-3,3-3h60.2c1.7,0,3,1.3,3,3v20.5
		C804.8,355.1,803.5,356.5,801.8,356.5z"/>
	<g>
		<path class="st5" d="M749.4,339.6v6.7h-0.7v-5.9l-1.3,0.9v-0.8l1.2-0.8L749.4,339.6L749.4,339.6z"/>
		<path class="st5" d="M753.8,339.6v6.7h-0.7v-5.9l-1.3,0.9v-0.8l1.2-0.8L753.8,339.6L753.8,339.6z"/>
		<path class="st5" d="M758.2,339.6v6.7h-0.7v-5.9l-1.3,0.9v-0.8l1.2-0.8L758.2,339.6L758.2,339.6z"/>
		<path class="st5" d="M765.2,343c0,2.3-0.9,3.4-2.6,3.4c-1.7,0-2.6-1.1-2.6-3.4s0.9-3.4,2.6-3.4S765.2,340.7,765.2,343z M764.5,343
			c0-2.4-1-2.8-1.9-2.8s-1.9,0.3-1.9,2.8c0,2.4,1,2.8,1.9,2.8C763.5,345.7,764.5,345.4,764.5,343z"/>
		<path class="st5" d="M768.5,339.6v6.7h-0.7v-5.9l-1.3,0.9v-0.8l1.2-0.8L768.5,339.6L768.5,339.6z"/>
		<path class="st5" d="M775.6,343c0,2.3-0.9,3.4-2.6,3.4c-1.7,0-2.6-1.1-2.6-3.4s0.9-3.4,2.6-3.4C774.7,339.6,775.6,340.7,775.6,343
			z M774.8,343c0-2.4-1-2.8-1.9-2.8s-1.9,0.3-1.9,2.8c0,2.4,1,2.8,1.9,2.8C773.8,345.7,774.8,345.4,774.8,343z"/>
		<path class="st5" d="M782,343c0,2.3-0.9,3.4-2.6,3.4c-1.7,0-2.6-1.1-2.6-3.4s0.9-3.4,2.6-3.4C781.2,339.6,782,340.7,782,343z
			 M781.3,343c0-2.4-1-2.8-1.9-2.8s-1.9,0.3-1.9,2.8c0,2.4,1,2.8,1.9,2.8C780.3,345.7,781.3,345.4,781.3,343z"/>
		<path class="st5" d="M785.4,339.6v6.7h-0.7v-5.9l-1.3,0.9v-0.8l1.2-0.8L785.4,339.6L785.4,339.6z"/>
		<path class="st5" d="M792.4,343c0,2.3-0.9,3.4-2.6,3.4c-1.7,0-2.6-1.1-2.6-3.4s0.9-3.4,2.6-3.4S792.4,340.7,792.4,343z M791.7,343
			c0-2.4-1-2.8-1.9-2.8s-1.9,0.3-1.9,2.8c0,2.4,1,2.8,1.9,2.8C790.6,345.7,791.7,345.4,791.7,343z"/>
		<path class="st5" d="M795.7,339.6v6.7H795v-5.9l-1.3,0.9v-0.8l1.2-0.8L795.7,339.6L795.7,339.6z"/>
	</g>
</g>
<g>
	<path class="st0" d="M68.1,686c2.9,0,4.4,1.6,4.4,4.7s-1.5,4.7-4.4,4.7h-2.9V686H68.1z M71.5,690.7c0-2.6-1.1-3.7-3.4-3.7h-1.8v7.5
		H68C70.4,694.4,71.5,693.3,71.5,690.7z"/>
	<path class="st0" d="M75.5,687.1h-1.1V686h1.1V687.1z M75.5,688.4h-1v7h1V688.4z"/>
	<path class="st0" d="M83,690.4v5.3c0,1.1-0.5,2.4-3,2.4c-0.8,0-1.5-0.1-2-0.3v-1c0.4,0.1,1.1,0.3,1.9,0.3c1.9,0,2.1-0.7,2.1-1.4
		V695c-0.5,0.2-1.1,0.3-1.6,0.3c-1.4,0-3.1-0.6-3.1-3.4c0-3.1,1.9-3.6,3-3.6C82.8,688.2,83,689.9,83,690.4z M82,690.3
		c0-0.8-0.6-1.2-1.8-1.2c-0.8,0-2,0.3-2,2.7c0,2.2,1.1,2.5,2.1,2.5c0.6,0,1.1-0.1,1.6-0.3v-3.7H82z"/>
	<path class="st0" d="M86.2,687.1h-1.1V686h1.1V687.1z M86.1,688.4h-1v7h1V688.4z"/>
	<path class="st0" d="M89.9,693.6c0,0.7,0.3,1,1,1c0.3,0,0.6-0.1,0.8-0.2v1c-0.3,0.1-0.6,0.2-0.9,0.2c-0.6,0-1.9-0.2-1.9-2v-4.2
		h-1.2v-0.9h1.2v-2h1v2h1.8v0.9h-1.8V693.6z"/>
	<path class="st0" d="M98.7,691.2v2.1c0,1.9-2,2.2-2.9,2.2s-2.9-0.3-2.9-2.3c0-2.3,3-2.3,3.7-2.3c0.6,0,1.1,0.1,1.1,0.1
		c0-1.3-0.8-1.7-2-1.7c-1,0-1.8,0.2-2,0.3v-1c0.5-0.2,1.2-0.4,2.1-0.4C97.6,688.2,98.7,689.3,98.7,691.2z M97.7,691.9
		c0,0-0.5-0.1-1.2-0.1c-0.8,0-2.5,0.1-2.5,1.4c0,1.1,1.1,1.3,1.9,1.3c0.9,0,1.9-0.2,1.9-1.3C97.7,692.2,97.7,691.9,97.7,691.9z"/>
	<path class="st0" d="M100.7,695.4v-9.7h1v9.7H100.7z"/>
	<path class="st0" d="M103.9,695.4v-9.7h1v9.7H103.9z"/>
	<path class="st0" d="M112.6,688.4l-2.9,7.7c-0.6,1.7-1.5,2-2.2,2c-0.3,0-0.5-0.1-0.7-0.1v-1c0.1,0.1,0.3,0.1,0.6,0.1
		c1,0,1.5-1.9,1.5-1.9l-2.6-6.9h1.1l2,5.5l2-5.5L112.6,688.4L112.6,688.4z"/>
	<path class="st0" d="M124.8,693c0,1.6-1.2,2.5-3.3,2.5c-1.2,0-2.1-0.3-2.8-0.7v-1.1c0.5,0.4,1.4,0.7,2.7,0.7c1.1,0,2.4-0.3,2.4-1.5
		c0-2.7-5.2-1.4-5.2-4.5c0-1.3,0.8-2.6,3.2-2.6c1,0,1.7,0.3,2.3,0.6v1c-0.5-0.3-1.3-0.6-2.2-0.6c-1.5,0-2.3,0.6-2.3,1.6
		C119.6,690.5,124.8,689.4,124.8,693z"/>
	<path class="st0" d="M127.8,687.1h-1.1V686h1.1V687.1z M127.7,688.4h-1v7h1V688.4z"/>
	<path class="st0" d="M135.2,690.4v5.3c0,1.1-0.5,2.4-3,2.4c-0.8,0-1.5-0.1-2-0.3v-1c0.4,0.1,1.1,0.3,1.9,0.3c1.9,0,2.1-0.7,2.1-1.4
		V695c-0.5,0.2-1.1,0.3-1.6,0.3c-1.4,0-3.1-0.6-3.1-3.4c0-3.1,1.9-3.6,3-3.6C135,688.2,135.2,689.9,135.2,690.4z M134.2,690.3
		c0-0.8-0.6-1.2-1.8-1.2c-0.8,0-2,0.3-2,2.7c0,2.2,1.1,2.5,2.1,2.5c0.6,0,1.1-0.1,1.6-0.3L134.2,690.3L134.2,690.3z"/>
	<path class="st0" d="M142.9,690.8v4.6h-1v-4.6c0-0.7-0.2-1.6-1.9-1.6c-0.7,0-1.4,0.1-1.8,0.3v5.8h-1v-6.4c0.3-0.2,1.5-0.7,3-0.7
		C141.9,688.2,142.9,689.2,142.9,690.8z"/>
	<path class="st0" d="M150.8,692c0,0.3,0,0.5,0,0.5h-5.1c0.1,1.4,0.8,2,2.3,2c1,0,1.8-0.2,2.4-0.5v1c-0.7,0.3-1.5,0.5-2.5,0.5
		c-1.5,0-3.2-0.6-3.2-3.5c0-0.7-0.1-3.7,3.1-3.7S150.8,691.7,150.8,692z M149.8,691.6c0-0.3-0.1-2.4-2-2.4c-1.4,0-1.9,0.6-2,2.4
		H149.8z"/>
	<path class="st0" d="M155.4,688.3c0.6,0,1.2,0.1,1.7,0.3v-2.8h1v7.6c0,0.5-0.2,2.2-2.9,2.2c-1.1,0-3.1-0.5-3.1-3.7
		C152.2,688.9,153.9,688.3,155.4,688.3z M155.3,694.6c1.2,0,1.9-0.4,1.9-1.2v-3.8c-0.5-0.2-1.1-0.3-1.7-0.3c-1.5,0-2.2,0.8-2.2,2.6
		C153.2,694.3,154.4,694.6,155.3,694.6z"/>
	<path class="st0" d="M83.9,702.8c2.9,0,4.4,1.6,4.4,4.7s-1.5,4.7-4.4,4.7H81v-9.3h2.9V702.8z M87.2,707.5c0-2.6-1.1-3.7-3.4-3.7H82
		v7.5h1.8C86.2,711.2,87.2,710.1,87.2,707.5z"/>
	<path class="st0" d="M96.2,708.7c0,3-1.8,3.6-3.3,3.6s-3.3-0.6-3.3-3.6s1.8-3.6,3.3-3.6C94.4,705,96.2,705.7,96.2,708.7z
		 M95.2,708.7c0-1.9-0.7-2.7-2.3-2.7c-1.6,0-2.3,0.8-2.3,2.7s0.7,2.7,2.3,2.7S95.2,710.5,95.2,708.7z"/>
	<path class="st0" d="M100.9,711.3c0.7,0,1.3-0.1,2-0.4v1c-0.7,0.3-1.4,0.4-2.1,0.4c-1.5,0-3.3-0.6-3.3-3.6s1.8-3.6,3.3-3.6
		c0.7,0,1.4,0.1,2.1,0.4v1c-0.6-0.3-1.3-0.4-2-0.4c-1.7,0-2.4,0.8-2.4,2.6C98.5,710.5,99.3,711.3,100.9,711.3z"/>
	<path class="st0" d="M110.3,705.2v4c0,1.9-1.1,3.1-2.9,3.1c-1.9,0-2.9-1.1-2.9-3.1v-4h1v4.1c0,1.4,0.6,2.1,1.9,2.1
		c1.3,0,1.9-0.6,1.9-2.1v-4.1H110.3z"/>
	<path class="st0" d="M122.3,707.6v4.6h-1v-4.6c0-0.7-0.2-1.6-1.7-1.6c-0.8,0-1.5,0.2-1.9,0.4c0.2,0.4,0.2,0.7,0.2,1.2v4.6h-1v-4.6
		c0-0.7-0.2-1.6-1.8-1.6c-0.6,0-1.2,0.1-1.7,0.3v5.9h-1v-6.4c0.4-0.2,1.5-0.7,2.8-0.7c0.8,0,1.4,0.2,1.8,0.6
		c0.5-0.2,1.4-0.6,2.6-0.6C121.3,705,122.3,706,122.3,707.6z"/>
	<path class="st0" d="M130.2,708.8c0,0.3,0,0.5,0,0.5h-5.1c0.1,1.4,0.8,2,2.3,2c1,0,1.8-0.2,2.4-0.5v1c-0.7,0.3-1.5,0.5-2.5,0.5
		c-1.5,0-3.2-0.6-3.2-3.5c0-0.7-0.1-3.7,3.1-3.7S130.2,708.5,130.2,708.8z M129.2,708.4c0-0.3-0.1-2.4-2-2.4c-1.4,0-1.9,0.6-2,2.4
		H129.2z"/>
	<path class="st0" d="M137.6,707.6v4.6h-1v-4.6c0-0.7-0.2-1.6-1.9-1.6c-0.7,0-1.4,0.1-1.8,0.3v5.8h-1v-6.4c0.3-0.2,1.5-0.7,3-0.7
		C136.6,705,137.6,706,137.6,707.6z"/>
	<path class="st0" d="M141.1,710.4c0,0.7,0.3,1,1,1c0.3,0,0.6-0.1,0.8-0.2v1c-0.3,0.1-0.6,0.2-0.9,0.2c-0.6,0-1.9-0.2-1.9-2v-4.2
		h-1.2v-0.9h1.2v-2h1v2h1.8v0.9h-1.8L141.1,710.4L141.1,710.4z"/>
</g>
<path class="st1" d="M128.5,633.6H94.6c-0.6,0-1.1,0.5-1.1,1.1v0.2c0,0.6,0.5,1.1,1.1,1.1h33.9c0.6,0,1.1-0.5,1.1-1.1v-0.2
	C129.5,634,129.1,633.6,128.5,633.6z"/>
<path class="st1" d="M128.5,626H97.7c-0.6,0-1.1,0.5-1.1,1v0.2c0,0.6,0.5,1.1,1.1,1.1h30.8c0.6,0,1.1-0.5,1.1-1.1V627
	C129.5,626.5,129.1,626,128.5,626z"/>
<path class="st1" d="M128.5,618.7h-20c-0.6,0-1.1,0.5-1.1,1.1v0.2c0,0.6,0.5,1.1,1.1,1.1h20c0.6,0,1.1-0.5,1.1-1.1v-0.2
	C129.5,619.1,129.1,618.7,128.5,618.7z"/>
<path class="st1" d="M128.5,611.3h-20c-0.6,0-1.1,0.5-1.1,1.1v0.2c0,0.6,0.5,1.1,1.1,1.1h20c0.6,0,1.1-0.5,1.1-1.1v-0.2
	C129.5,611.8,129.1,611.3,128.5,611.3z"/>
<path class="st1" d="M128.5,639.9H94.6c-0.6,0-1.1,0.5-1.1,1.1v0.2c0,0.6,0.5,1.1,1.1,1.1h33.9c0.6,0,1.1-0.5,1.1-1.1V641
	C129.5,640.3,129.1,639.9,128.5,639.9z"/>
<path class="st1" d="M136.1,591.6h-35.3c-3,0-6.8,1.7-8.7,4l-8.3,9.4c-1.9,2.2-3.4,6-3.4,8.9v45.2c0,3.6,2.9,6.6,6.6,6.6h49.1
	c3.6,0,6.6-2.9,6.6-6.6v-60.9C142.7,594.6,139.7,591.6,136.1,591.6z M87.3,608.1l8.3-9.4c0.3-0.4,0.8-0.7,1.3-1l3.4,3.4l-13.9,8.5
	C86.7,609,87,608.5,87.3,608.1z M138,659.1c0,1-0.8,1.8-1.8,1.8H87c-1,0-1.8-0.8-1.8-1.8v-43.3l20.2-12.3c0.6-0.4,1-1,1.1-1.7
	c0.1-0.7-0.2-1.4-0.7-2l-3.5-3.5h33.9c1,0,1.8,0.8,1.8,1.8L138,659.1L138,659.1z"/>
<g>
	<path class="st1" d="M141.7,674.2H81.5c-1.7,0-3-1.3-3-3v-20.5c0-1.7,1.3-3,3-3h60.2c1.7,0,3,1.3,3,3v20.5
		C144.7,672.9,143.3,674.2,141.7,674.2z"/>
	<g>
		<path class="st5" d="M89.2,657.4v6.7h-0.7v-5.9l-1.3,0.9v-0.8l1.2-0.8L89.2,657.4L89.2,657.4z"/>
		<path class="st5" d="M93.6,657.4v6.7h-0.7v-5.9l-1.3,0.9v-0.8l1.2-0.8L93.6,657.4L93.6,657.4z"/>
		<path class="st5" d="M98.1,657.4v6.7h-0.7v-5.9L96,659v-0.8l1.2-0.8H98.1L98.1,657.4z"/>
		<path class="st5" d="M105.1,660.8c0,2.3-0.9,3.4-2.6,3.4c-1.7,0-2.6-1.1-2.6-3.4s0.9-3.4,2.6-3.4
			C104.2,657.4,105.1,658.5,105.1,660.8z M104.4,660.8c0-2.4-1-2.8-1.9-2.8s-1.9,0.3-1.9,2.8c0,2.4,1,2.8,1.9,2.8
			C103.3,663.5,104.4,663.2,104.4,660.8z"/>
		<path class="st5" d="M108.4,657.4v6.7h-0.7v-5.9l-1.3,0.9v-0.8l1.2-0.8L108.4,657.4L108.4,657.4z"/>
		<path class="st5" d="M115.4,660.8c0,2.3-0.9,3.4-2.6,3.4c-1.7,0-2.6-1.1-2.6-3.4s0.9-3.4,2.6-3.4S115.4,658.5,115.4,660.8z
			 M114.7,660.8c0-2.4-1-2.8-1.9-2.8s-1.9,0.3-1.9,2.8c0,2.4,1,2.8,1.9,2.8C113.7,663.5,114.7,663.2,114.7,660.8z"/>
		<path class="st5" d="M121.9,660.8c0,2.3-0.9,3.4-2.6,3.4c-1.7,0-2.6-1.1-2.6-3.4s0.9-3.4,2.6-3.4S121.9,658.5,121.9,660.8z
			 M121.2,660.8c0-2.4-1-2.8-1.9-2.8s-1.9,0.3-1.9,2.8c0,2.4,1,2.8,1.9,2.8C120.1,663.5,121.2,663.2,121.2,660.8z"/>
		<path class="st5" d="M125.2,657.4v6.7h-0.7v-5.9l-1.3,0.9v-0.8l1.2-0.8L125.2,657.4L125.2,657.4z"/>
		<path class="st5" d="M132.2,660.8c0,2.3-0.9,3.4-2.6,3.4c-1.7,0-2.6-1.1-2.6-3.4s0.9-3.4,2.6-3.4S132.2,658.5,132.2,660.8z
			 M131.5,660.8c0-2.4-1-2.8-1.9-2.8s-1.9,0.3-1.9,2.8c0,2.4,1,2.8,1.9,2.8C130.5,663.5,131.5,663.2,131.5,660.8z"/>
		<path class="st5" d="M135.5,657.4v6.7h-0.7v-5.9l-1.3,0.9v-0.8l1.2-0.8L135.5,657.4L135.5,657.4z"/>
	</g>
</g>
<g>
	<path class="st1" d="M157.7,596.3c0,0.8,0.7,1.5,1.5,1.5H280v-3H159.2C158.4,594.8,157.7,595.5,157.7,596.3z"/>
	<polygon class="st1" points="480.2,596.3 471.7,591.4 471.7,594.8 359.6,594.8 359.6,597.8 471.7,597.8 471.7,601.2 	"/>
</g>
<g>
	<path class="st1" d="M221.1,343.2c0,0.8,0.7,1.5,1.5,1.5h49.5v-3h-49.5C221.8,341.7,221.1,342.4,221.1,343.2z"/>
	<polygon class="st1" points="405.8,343.2 397.4,338.3 397.4,341.7 351.3,341.7 351.3,344.7 397.4,344.7 397.4,348.1 	"/>
</g>
<g>
	<path class="st1" d="M492.4,343.2c0,0.8,0.7,1.5,1.5,1.5h73.7v-3h-73.7C493.1,341.7,492.4,342.4,492.4,343.2z"/>
	<polygon class="st1" points="723.8,343.2 715.4,338.3 715.4,341.7 651.2,341.7 651.2,344.7 715.4,344.7 715.4,348.1 	"/>
</g>
<g>
	<path class="st1" d="M157.7,661c0,0.8,0.7,1.5,1.5,1.5h118.5v-3H159.2C158.4,659.5,157.7,660.2,157.7,661z"/>
	<polygon class="st1" points="480.2,661 471.7,656.1 471.7,659.5 362.7,659.5 362.7,662.5 471.7,662.5 471.7,665.9 	"/>
</g>
</svg>
